<?xml version="1.0" encoding="UTF-8" standalone="no"?>
<svg
   xmlns:dc="http://purl.org/dc/elements/1.1/"
   xmlns:cc="http://creativecommons.org/ns#"
   xmlns:rdf="http://www.w3.org/1999/02/22-rdf-syntax-ns#"
   xmlns:svg="http://www.w3.org/2000/svg"
   xmlns="http://www.w3.org/2000/svg"
   xmlns:sodipodi="http://sodipodi.sourceforge.net/DTD/sodipodi-0.dtd"
   xmlns:inkscape="http://www.inkscape.org/namespaces/inkscape"
   viewBox="0 0 58.001282 58.001442"
   version="1.1"
   x="0px"
   y="0px"
   id="svg70"
   sodipodi:docname="all.svg"
   width="58.001282"
   height="58.001442"
   inkscape:version="0.92.1 r15371">
  <metadata
     id="metadata76">
    <rdf:RDF>
      <cc:Work
         rdf:about="">
        <dc:format>image/svg+xml</dc:format>
        <dc:type
           rdf:resource="http://purl.org/dc/dcmitype/StillImage" />
        <dc:title>17 -Space Geometry- (Outline)</dc:title>
      </cc:Work>
    </rdf:RDF>
  </metadata>
  <defs
     id="defs74" />
  <sodipodi:namedview
     pagecolor="#ffffff"
     bordercolor="#666666"
     borderopacity="1"
     objecttolerance="10"
     gridtolerance="10"
     guidetolerance="10"
     inkscape:pageopacity="0"
     inkscape:pageshadow="2"
     inkscape:window-width="1920"
     inkscape:window-height="1017"
     id="namedview72"
     showgrid="false"
     fit-margin-top="0"
     fit-margin-left="0"
     fit-margin-right="0"
     fit-margin-bottom="0"
     inkscape:zoom="3.2551724"
     inkscape:cx="-24.760153"
     inkscape:cy="21.7505"
     inkscape:window-x="-8"
     inkscape:window-y="-8"
     inkscape:window-maximized="1"
     inkscape:current-layer="g64" />
  <title
     id="title2">17 -Space Geometry- (Outline)</title>
  <desc
     id="desc4">Created with Sketch.</desc>
  <g
     id="g64"
     style="fill:none;fill-rule:evenodd;stroke:none;stroke-width:1"
     transform="translate(4.3996612e-4,9.4218318e-4)">
    <g
       transform="translate(-834,-450)"
       id="g62"
       style="fill:#3f24d6;fill-opacity:1">
      <g
         transform="translate(834,449)"
         id="g60"
         style="fill:#3f24d6;fill-opacity:1">
        <path
           d="m 1.0012,11 c -0.348,0 -0.685,-0.181 -0.869,-0.504 -0.275,-0.479 -0.108,-1.09 0.372,-1.364 l 14,-8 c 0.479,-0.276 1.09,-0.108 1.364,0.372 0.275,0.479 0.108,1.09 -0.372,1.364 l -14,8 C 1.3402,10.958 1.1692,11 1.0012,11"
           id="path6"
           inkscape:connector-curvature="0"
           style="fill:#3f24d6;fill-opacity:1" />
        <path
           d="m 28.9992,11 c -0.168,0 -0.339,-0.042 -0.495,-0.132 l -14,-8 c -0.48,-0.274 -0.647,-0.885 -0.372,-1.364 0.273,-0.48 0.885,-0.648 1.364,-0.372 l 14,8 c 0.48,0.274 0.647,0.885 0.372,1.364 -0.184,0.323 -0.521,0.504 -0.869,0.504"
           id="path8"
           inkscape:connector-curvature="0"
           style="fill:#3f24d6;fill-opacity:1" />
        <path
           d="m 29.0012,11 c -0.348,0 -0.685,-0.181 -0.869,-0.504 -0.275,-0.479 -0.108,-1.09 0.372,-1.364 l 14,-8 c 0.478,-0.276 1.09,-0.108 1.364,0.372 0.275,0.479 0.108,1.09 -0.372,1.364 l -14,8 C 29.3402,10.958 29.1692,11 29.0012,11"
           id="path10"
           inkscape:connector-curvature="0"
           style="fill:#3f24d6;fill-opacity:1" />
        <path
           d="m 56.9992,11 c -0.168,0 -0.339,-0.042 -0.495,-0.132 l -14,-8 c -0.48,-0.274 -0.647,-0.885 -0.372,-1.364 0.273,-0.48 0.884,-0.648 1.364,-0.372 l 14,8 c 0.48,0.274 0.647,0.885 0.372,1.364 -0.184,0.323 -0.521,0.504 -0.869,0.504"
           id="path12"
           inkscape:connector-curvature="0"
           style="fill:#3f24d6;fill-opacity:1" />
        <path
           d="m 14.9992,18 c -0.15,0 -0.303,-0.034 -0.446,-0.105 l -14,-7 c -0.494,-0.248 -0.695,-0.848 -0.448,-1.342 0.248,-0.495 0.849,-0.695 1.342,-0.448 l 14,7 c 0.494,0.248 0.695,0.848 0.448,1.342 -0.176,0.351 -0.529,0.553 -0.896,0.553"
           id="path14"
           inkscape:connector-curvature="0"
           style="fill:#3f24d6;fill-opacity:1" />
        <path
           d="m 15.0012,18 c -0.367,0 -0.72,-0.202 -0.896,-0.553 -0.247,-0.494 -0.046,-1.094 0.448,-1.342 l 14,-7 c 0.495,-0.247 1.094,-0.047 1.342,0.448 0.247,0.494 0.046,1.094 -0.448,1.342 l -14,7 C 15.3042,17.966 15.1512,18 15.0012,18"
           id="path16"
           inkscape:connector-curvature="0"
           style="fill:#3f24d6;fill-opacity:1" />
        <path
           d="m 14.9992,34 c -0.15,0 -0.303,-0.034 -0.446,-0.105 l -14,-7 c -0.494,-0.248 -0.695,-0.848 -0.448,-1.342 0.248,-0.494 0.849,-0.694 1.342,-0.448 l 14,7 c 0.494,0.248 0.695,0.848 0.448,1.342 -0.176,0.351 -0.529,0.553 -0.896,0.553"
           id="path18"
           inkscape:connector-curvature="0"
           style="fill:#3f24d6;fill-opacity:1" />
        <path
           d="m 15.0012,34 c -0.367,0 -0.72,-0.202 -0.896,-0.553 -0.247,-0.494 -0.046,-1.094 0.448,-1.342 l 14,-7 c 0.495,-0.246 1.094,-0.046 1.342,0.448 0.247,0.494 0.046,1.094 -0.448,1.342 l -14,7 C 15.3042,33.966 15.1512,34 15.0012,34"
           id="path20"
           inkscape:connector-curvature="0"
           style="fill:#3f24d6;fill-opacity:1" />
        <path
           d="m 42.9992,18 c -0.15,0 -0.303,-0.034 -0.446,-0.105 l -14,-7 c -0.494,-0.248 -0.695,-0.848 -0.448,-1.342 0.248,-0.495 0.848,-0.695 1.342,-0.448 l 14,7 c 0.494,0.248 0.695,0.848 0.448,1.342 -0.176,0.351 -0.529,0.553 -0.896,0.553"
           id="path22"
           inkscape:connector-curvature="0"
           style="fill:#3f24d6;fill-opacity:1" />
        <path
           d="m 43.0012,18 c -0.367,0 -0.72,-0.202 -0.896,-0.553 -0.247,-0.494 -0.046,-1.094 0.448,-1.342 l 14,-7 c 0.494,-0.247 1.094,-0.047 1.342,0.448 0.247,0.494 0.046,1.094 -0.448,1.342 l -14,7 C 43.3042,17.966 43.1512,18 43.0012,18"
           id="path24"
           inkscape:connector-curvature="0"
           style="fill:#3f24d6;fill-opacity:1" />
        <path
           d="m 1.0002,27 c -0.553,0 -1,-0.448 -1,-1 V 10 c 0,-0.552 0.447,-1 1,-1 0.553,0 1,0.448 1,1 v 16 c 0,0.552 -0.447,1 -1,1"
           id="path26"
           inkscape:connector-curvature="0"
           style="fill:#3f24d6;fill-opacity:1" />
        <path
           d="m 29.0002,27 c -0.553,0 -1,-0.448 -1,-1 V 10 c 0,-0.552 0.447,-1 1,-1 0.553,0 1,0.448 1,1 v 16 c 0,0.552 -0.447,1 -1,1"
           id="path28"
           inkscape:connector-curvature="0"
           style="fill:#3f24d6;fill-opacity:1" />
        <path
           d="m 15.0002,34 c -0.553,0 -1,-0.448 -1,-1 V 17 c 0,-0.552 0.447,-1 1,-1 0.553,0 1,0.448 1,1 v 16 c 0,0.552 -0.447,1 -1,1"
           id="path30"
           inkscape:connector-curvature="0"
           style="fill:#3f24d6;fill-opacity:1" />
        <path
           d="m 42.9992,34 c -0.15,0 -0.303,-0.034 -0.446,-0.105 l -14,-7 c -0.494,-0.248 -0.695,-0.848 -0.448,-1.342 0.248,-0.494 0.848,-0.694 1.342,-0.448 l 14,7 c 0.494,0.248 0.695,0.848 0.448,1.342 -0.176,0.351 -0.529,0.553 -0.896,0.553"
           id="path32"
           inkscape:connector-curvature="0"
           style="fill:#3f24d6;fill-opacity:1" />
        <path
           d="m 43.0012,34 c -0.367,0 -0.72,-0.202 -0.896,-0.553 -0.247,-0.494 -0.046,-1.094 0.448,-1.342 l 14,-7 c 0.494,-0.246 1.094,-0.046 1.342,0.448 0.247,0.494 0.046,1.094 -0.448,1.342 l -14,7 C 43.3042,33.966 43.1512,34 43.0012,34"
           id="path34"
           inkscape:connector-curvature="0"
           style="fill:#3f24d6;fill-opacity:1" />
        <path
           d="m 29.0002,27 c -0.553,0 -1,-0.448 -1,-1 V 10 c 0,-0.552 0.447,-1 1,-1 0.553,0 1,0.448 1,1 v 16 c 0,0.552 -0.447,1 -1,1"
           id="path36"
           inkscape:connector-curvature="0"
           style="fill:#3f24d6;fill-opacity:1" />
        <path
           d="m 57.0002,27 c -0.553,0 -1,-0.448 -1,-1 V 10 c 0,-0.552 0.447,-1 1,-1 0.553,0 1,0.448 1,1 v 16 c 0,0.552 -0.447,1 -1,1"
           id="path38"
           inkscape:connector-curvature="0"
           style="fill:#3f24d6;fill-opacity:1" />
        <path
           d="m 43.0002,34 c -0.553,0 -1,-0.448 -1,-1 V 17 c 0,-0.552 0.447,-1 1,-1 0.553,0 1,0.448 1,1 v 16 c 0,0.552 -0.447,1 -1,1"
           id="path40"
           inkscape:connector-curvature="0"
           style="fill:#3f24d6;fill-opacity:1" />
        <path
           d="m 15.0012,34 c -0.367,0 -0.72,-0.202 -0.896,-0.553 -0.247,-0.494 -0.046,-1.094 0.448,-1.342 l 14,-7 c 0.495,-0.246 1.094,-0.046 1.342,0.448 0.247,0.494 0.046,1.094 -0.448,1.342 l -14,7 C 15.3042,33.966 15.1512,34 15.0012,34"
           id="path42"
           inkscape:connector-curvature="0"
           style="fill:#3f24d6;fill-opacity:1" />
        <path
           d="m 42.9992,34 c -0.15,0 -0.303,-0.034 -0.446,-0.105 l -14,-7 c -0.494,-0.248 -0.695,-0.848 -0.448,-1.342 0.248,-0.494 0.848,-0.694 1.342,-0.448 l 14,7 c 0.494,0.248 0.695,0.848 0.448,1.342 -0.176,0.351 -0.529,0.553 -0.896,0.553"
           id="path44"
           inkscape:connector-curvature="0"
           style="fill:#3f24d6;fill-opacity:1" />
        <path
           d="m 28.9992,41 c -0.15,0 -0.303,-0.034 -0.446,-0.105 l -14,-7 c -0.494,-0.248 -0.695,-0.848 -0.448,-1.342 0.248,-0.494 0.849,-0.695 1.342,-0.448 l 14,7 c 0.494,0.248 0.695,0.848 0.448,1.342 -0.176,0.351 -0.529,0.553 -0.896,0.553"
           id="path46"
           inkscape:connector-curvature="0"
           style="fill:#3f24d6;fill-opacity:1" />
        <path
           d="m 29.0012,41 c -0.367,0 -0.72,-0.202 -0.896,-0.553 -0.247,-0.494 -0.046,-1.094 0.448,-1.342 l 14,-7 c 0.495,-0.247 1.094,-0.046 1.342,0.448 0.247,0.494 0.046,1.094 -0.448,1.342 l -14,7 C 29.3042,40.966 29.1512,41 29.0012,41"
           id="path48"
           inkscape:connector-curvature="0"
           style="fill:#3f24d6;fill-opacity:1" />
        <path
           d="m 28.9992,59 c -0.15,0 -0.303,-0.034 -0.446,-0.105 l -14,-7 c -0.494,-0.248 -0.695,-0.848 -0.448,-1.342 0.248,-0.494 0.849,-0.694 1.342,-0.448 l 14,7 c 0.494,0.248 0.695,0.848 0.448,1.342 -0.176,0.351 -0.529,0.553 -0.896,0.553"
           id="path50"
           inkscape:connector-curvature="0"
           style="fill:#3f24d6;fill-opacity:1" />
        <path
           d="m 29.0002,59.0005 c -0.388,0 -0.757,-0.228 -0.919,-0.606 -0.218,-0.508 0.018,-1.096 0.525,-1.313 l 14,-6 c 0.503,-0.219 1.095,0.016 1.313,0.524 0.218,0.508 -0.018,1.096 -0.525,1.313 l -14,6 c -0.128,0.056 -0.262,0.082 -0.394,0.082"
           id="path52"
           inkscape:connector-curvature="0"
           style="fill:#3f24d6;fill-opacity:1" />
        <path
           d="m 43.0002,53 c -0.553,0 -1,-0.448 -1,-1 V 33 c 0,-0.552 0.447,-1 1,-1 0.553,0 1,0.448 1,1 v 19 c 0,0.552 -0.447,1 -1,1"
           id="path54"
           inkscape:connector-curvature="0"
           style="fill:#3f24d6;fill-opacity:1" />
        <path
           d="m 15.0002,52 c -0.553,0 -1,-0.448 -1,-1 V 33 c 0,-0.552 0.447,-1 1,-1 0.553,0 1,0.448 1,1 v 18 c 0,0.552 -0.447,1 -1,1"
           id="path56"
           inkscape:connector-curvature="0"
           style="fill:#3f24d6;fill-opacity:1" />
        <path
           d="m 29.0002,59 c -0.553,0 -1,-0.448 -1,-1 V 40 c 0,-0.552 0.447,-1 1,-1 0.553,0 1,0.448 1,1 v 18 c 0,0.552 -0.447,1 -1,1"
           id="path58"
           inkscape:connector-curvature="0"
           style="fill:#3f24d6;fill-opacity:1" />
      </g>
    </g>
  </g>
</svg>
