<?xml version="1.0" encoding="UTF-8" standalone="no"?>
<svg
   xmlns:dc="http://purl.org/dc/elements/1.1/"
   xmlns:cc="http://creativecommons.org/ns#"
   xmlns:rdf="http://www.w3.org/1999/02/22-rdf-syntax-ns#"
   xmlns:svg="http://www.w3.org/2000/svg"
   xmlns="http://www.w3.org/2000/svg"
   xmlns:sodipodi="http://sodipodi.sourceforge.net/DTD/sodipodi-0.dtd"
   xmlns:inkscape="http://www.inkscape.org/namespaces/inkscape"
   version="1.1"
   x="0px"
   y="0px"
   viewBox="0 0 84 86.837288"
   xml:space="preserve"
   id="svg24"
   sodipodi:docname="light.svg"
   width="84"
   height="86.837288"
   inkscape:version="0.92.1 r15371"><metadata
     id="metadata30"><rdf:RDF><cc:Work
         rdf:about=""><dc:format>image/svg+xml</dc:format><dc:type
           rdf:resource="http://purl.org/dc/dcmitype/StillImage" /><dc:title /></cc:Work></rdf:RDF></metadata><defs
     id="defs28" /><sodipodi:namedview
     pagecolor="#ffffff"
     bordercolor="#666666"
     borderopacity="1"
     objecttolerance="10"
     gridtolerance="10"
     guidetolerance="10"
     inkscape:pageopacity="0"
     inkscape:pageshadow="2"
     inkscape:window-width="1920"
     inkscape:window-height="1017"
     id="namedview26"
     showgrid="false"
     fit-margin-top="0"
     fit-margin-left="0"
     fit-margin-right="0"
     fit-margin-bottom="0"
     inkscape:zoom="1.888"
     inkscape:cx="-49.690678"
     inkscape:cy="25.499999"
     inkscape:window-x="-8"
     inkscape:window-y="-8"
     inkscape:window-maximized="1"
     inkscape:current-layer="svg24" /><g
     id="g18"
     style="fill:#3f24d6;fill-opacity:1"
     transform="matrix(1,0,0,1.0512989,-7,-5.6770142)"><rect
       x="80"
       y="45"
       width="11"
       height="4"
       id="rect2"
       style="fill:#3f24d6;fill-opacity:1" /><rect
       x="7"
       y="45"
       width="11"
       height="4"
       id="rect4"
       style="fill:#3f24d6;fill-opacity:1" /><rect
       x="47"
       y="5.4000001"
       width="4"
       height="10.4"
       id="rect6"
       style="fill:#3f24d6;fill-opacity:1" /><rect
       x="69.5"
       y="19.200001"
       transform="matrix(0.7071,-0.7071,0.7071,0.7071,6.861,59.0191)"
       width="10.4"
       height="4"
       id="rect8"
       style="fill:#3f24d6;fill-opacity:1" /><rect
       x="18.1"
       y="70.599998"
       transform="matrix(0.7071,-0.7071,0.7071,0.7071,-44.4847,37.751)"
       width="10.4"
       height="4"
       id="rect10"
       style="fill:#3f24d6;fill-opacity:1" /><rect
       x="21.299999"
       y="16"
       transform="matrix(0.7071,-0.7071,0.7071,0.7071,-8.1778,22.7122)"
       width="4"
       height="10.4"
       id="rect12"
       style="fill:#3f24d6;fill-opacity:1" /><rect
       x="72.699997"
       y="67.400002"
       transform="matrix(0.7071,-0.7071,0.7071,0.7071,-29.4459,74.0579)"
       width="4"
       height="10.4"
       id="rect14"
       style="fill:#3f24d6;fill-opacity:1" /><path
       d="m 62,84 v -9 c 0,-2.8 1.4,-5.4 4.1,-7.6 C 72.4,62.3 76,54.8 76,46.7 76,39.3 73,32.4 67.6,27.3 62.1,22.1 54.9,19.5 47.3,20 33.8,20.8 22.7,32 22.1,45.5 c -0.4,8.6 3.3,16.6 10,22 1.8,1.5 4,3.9 4,7.5 v 9 c 0,2.3 1.7,4 3.9,4 h 18.2 c 2.1,0 3.8,-1.7 3.8,-4 z m -4,0 H 40 v -1 h 18 z m 0,-5 H 40 V 78 H 58 Z M 39.9,73.9 C 39.6,70.3 37.7,67 34.5,64.4 28.8,59.8 25.7,53 26,45.7 26.5,34.3 36,24.8 47.5,24 c 6.5,-0.4 12.6,1.8 17.3,6.2 4.6,4.3 7.2,10.2 7.2,16.5 0,6.8 -3.1,13.2 -8.4,17.6 -3.3,2.7 -5.2,6 -5.5,9.6 z"
       id="path16"
       style="fill:#3f24d6;fill-opacity:1"
       inkscape:connector-curvature="0" /></g></svg>