<?xml version="1.0" encoding="UTF-8" standalone="no"?>
<svg
   xmlns:dc="http://purl.org/dc/elements/1.1/"
   xmlns:cc="http://creativecommons.org/ns#"
   xmlns:rdf="http://www.w3.org/1999/02/22-rdf-syntax-ns#"
   xmlns:svg="http://www.w3.org/2000/svg"
   xmlns="http://www.w3.org/2000/svg"
   xmlns:sodipodi="http://sodipodi.sourceforge.net/DTD/sodipodi-0.dtd"
   xmlns:inkscape="http://www.inkscape.org/namespaces/inkscape"
   viewBox="0 0 50.000401 49.66127"
   version="1.1"
   x="0px"
   y="0px"
   id="svg22"
   sodipodi:docname="missing.svg"
   width="50.000401"
   height="49.66127"
   inkscape:version="0.92.1 r15371">
  <metadata
     id="metadata28">
    <rdf:RDF>
      <cc:Work
         rdf:about="">
        <dc:format>image/svg+xml</dc:format>
        <dc:type
           rdf:resource="http://purl.org/dc/dcmitype/StillImage" />
        <dc:title>21 -Cube- (Outline)</dc:title>
      </cc:Work>
    </rdf:RDF>
  </metadata>
  <defs
     id="defs26" />
  <sodipodi:namedview
     pagecolor="#ffffff"
     bordercolor="#666666"
     borderopacity="1"
     objecttolerance="10"
     gridtolerance="10"
     guidetolerance="10"
     inkscape:pageopacity="0"
     inkscape:pageshadow="2"
     inkscape:window-width="1920"
     inkscape:window-height="1017"
     id="namedview24"
     showgrid="false"
     fit-margin-top="0"
     fit-margin-left="0"
     fit-margin-right="0"
     fit-margin-bottom="0"
     inkscape:zoom="3.3122807"
     inkscape:cx="-27.833686"
     inkscape:cy="21.3753"
     inkscape:window-x="-8"
     inkscape:window-y="-8"
     inkscape:window-maximized="1"
     inkscape:current-layer="svg22" />
  <title
     id="title2">21 -Cube- (Outline)</title>
  <desc
     id="desc4">Created with Sketch.</desc>
  <g
     id="g16"
     style="fill:#3f24d6;fill-rule:evenodd;stroke:none;stroke-width:1;fill-opacity:1"
     transform="matrix(1,0,0,0.87267368,0,-0.08139321)">
    <g
       transform="translate(-118,-571)"
       id="g14"
       style="fill:#3f24d6;fill-opacity:1">
      <g
         transform="translate(118,571)"
         id="g12"
         style="fill:#3f24d6;fill-opacity:1">
        <path
           d="m 7.655,18.8823 c -0.171,0 -0.344,-0.044 -0.503,-0.136 l -3.455,-2.015 c -0.477,-0.279 -0.638,-0.891 -0.36,-1.368 0.278,-0.477 0.889,-0.639 1.368,-0.36 l 3.455,2.015 c 0.477,0.279 0.638,0.891 0.36,1.368 -0.186,0.318 -0.521,0.496 -0.865,0.496 M 1,21.2953 c -0.552,0 -1,-0.448 -1,-1 v -4 c 0,-0.553 0.448,-1 1,-1 0.552,0 1,0.447 1,1 v 4 c 0,0.552 -0.448,1 -1,1 m 15.293,2.626 c -0.171,0 -0.345,-0.044 -0.503,-0.136 l -3.455,-2.016 c -0.477,-0.278 -0.638,-0.89 -0.36,-1.367 0.278,-0.478 0.889,-0.638 1.367,-0.36 l 3.456,2.015 c 0.477,0.279 0.638,0.891 0.359,1.368 -0.186,0.318 -0.52,0.496 -0.864,0.496 m 8.637,5.039 c -0.171,0 -0.344,-0.044 -0.503,-0.137 l -3.455,-2.015 c -0.477,-0.279 -0.638,-0.891 -0.359,-1.368 0.277,-0.476 0.889,-0.638 1.367,-0.36 l 3.455,2.016 c 0.477,0.278 0.638,0.89 0.36,1.368 -0.186,0.318 -0.52,0.496 -0.865,0.496 M 1,31.2953 c -0.552,0 -1,-0.448 -1,-1 v -4 c 0,-0.553 0.448,-1 1,-1 0.552,0 1,0.447 1,1 v 4 c 0,0.552 -0.448,1 -1,1 m 24,7.625 c -0.552,0 -1,-0.448 -1,-1 v -4 c 0,-0.552 0.448,-1 1,-1 0.552,0 1,0.448 1,1 v 4 c 0,0.552 -0.448,1 -1,1 m -24,2.375 c -0.552,0 -1,-0.448 -1,-1 v -4 c 0,-0.553 0.448,-1 1,-1 0.552,0 1,0.447 1,1 v 4 c 0,0.552 -0.448,1 -1,1 m 6.413,6.179 c -0.16,0 -0.323,-0.039 -0.475,-0.121 l -3.517,-1.905 c -0.486,-0.263 -0.666,-0.87 -0.403,-1.355 0.263,-0.486 0.869,-0.666 1.355,-0.403 l 3.517,1.904 c 0.486,0.264 0.667,0.871 0.404,1.356 -0.181,0.334 -0.525,0.524 -0.881,0.524 M 25,48.9203 c -0.552,0 -1,-0.448 -1,-1 v -4 c 0,-0.552 0.448,-1 1,-1 0.552,0 1,0.448 1,1 v 4 c 0,0.552 -0.448,1 -1,1 m -8.794,3.317 c -0.16,0 -0.323,-0.039 -0.475,-0.121 l -3.517,-1.905 c -0.486,-0.263 -0.666,-0.87 -0.403,-1.355 0.263,-0.486 0.869,-0.666 1.356,-0.404 l 3.517,1.906 c 0.485,0.263 0.666,0.87 0.403,1.356 -0.182,0.334 -0.525,0.523 -0.881,0.523 M 25,57.0003 c -0.163,0 -0.327,-0.04 -0.476,-0.121 l -3.517,-1.905 c -0.486,-0.263 -0.666,-0.87 -0.403,-1.356 0.263,-0.485 0.869,-0.666 1.356,-0.403 l 2.04,1.105 v -0.4 c 0,-0.552 0.448,-1 1,-1 0.552,0 1,0.448 1,1 v 2.08 c 0,0.352 -0.185,0.678 -0.488,0.859 -0.157,0.094 -0.335,0.141 -0.512,0.141"
           id="path6"
           inkscape:connector-curvature="0"
           style="fill:#3f24d6;fill-opacity:1" />
        <path
           d="m 42.3454,18.8823 c -0.344,0 -0.679,-0.178 -0.865,-0.496 -0.278,-0.477 -0.117,-1.089 0.36,-1.368 l 3.455,-2.015 c 0.479,-0.279 1.09,-0.117 1.368,0.36 0.278,0.477 0.117,1.089 -0.36,1.368 l -3.455,2.015 c -0.159,0.092 -0.332,0.136 -0.503,0.136 m 6.655,2.413 c -0.552,0 -1,-0.448 -1,-1 v -4 c 0,-0.553 0.448,-1 1,-1 0.552,0 1,0.447 1,1 v 4 c 0,0.552 -0.448,1 -1,1 m -15.293,2.626 c -0.344,0 -0.678,-0.178 -0.864,-0.496 -0.279,-0.477 -0.118,-1.089 0.359,-1.368 l 3.456,-2.015 c 0.478,-0.278 1.089,-0.118 1.367,0.36 0.278,0.477 0.117,1.089 -0.36,1.367 l -3.455,2.016 c -0.158,0.092 -0.332,0.136 -0.503,0.136 m -8.637,5.039 c -0.345,0 -0.679,-0.178 -0.865,-0.496 -0.278,-0.478 -0.117,-1.09 0.36,-1.368 l 3.455,-2.016 c 0.479,-0.278 1.089,-0.116 1.367,0.36 0.279,0.477 0.118,1.089 -0.359,1.368 l -3.455,2.015 c -0.159,0.093 -0.332,0.137 -0.503,0.137 m 23.93,2.335 c -0.552,0 -1,-0.448 -1,-1 v -4 c 0,-0.553 0.448,-1 1,-1 0.552,0 1,0.447 1,1 v 4 c 0,0.552 -0.448,1 -1,1 m -24,7.625 c -0.552,0 -1,-0.448 -1,-1 v -4 c 0,-0.552 0.448,-1 1,-1 0.552,0 1,0.448 1,1 v 4 c 0,0.552 -0.448,1 -1,1 m 24,2.375 c -0.552,0 -1,-0.448 -1,-1 v -4 c 0,-0.553 0.448,-1 1,-1 0.552,0 1,0.447 1,1 v 4 c 0,0.552 -0.448,1 -1,1 m -6.413,6.179 c -0.356,0 -0.7,-0.19 -0.881,-0.524 -0.263,-0.485 -0.082,-1.092 0.404,-1.356 l 3.517,-1.904 c 0.486,-0.265 1.092,-0.083 1.355,0.403 0.263,0.485 0.083,1.092 -0.403,1.355 l -3.517,1.905 c -0.152,0.082 -0.315,0.121 -0.475,0.121 m -17.587,1.446 c -0.552,0 -1,-0.448 -1,-1 v -4 c 0,-0.552 0.448,-1 1,-1 0.552,0 1,0.448 1,1 v 4 c 0,0.552 -0.448,1 -1,1 m 8.794,3.317 c -0.356,0 -0.699,-0.189 -0.881,-0.523 -0.263,-0.486 -0.082,-1.093 0.403,-1.356 l 3.517,-1.906 c 0.487,-0.264 1.093,-0.083 1.356,0.404 0.263,0.485 0.083,1.092 -0.403,1.355 l -3.517,1.905 c -0.151,0.082 -0.315,0.121 -0.475,0.121 m -8.794,4.763 c -0.177,0 -0.355,-0.047 -0.512,-0.141 -0.303,-0.181 -0.488,-0.507 -0.488,-0.859 v -2.08 c 0,-0.552 0.448,-1 1,-1 0.552,0 1,0.448 1,1 v 0.4 l 2.04,-1.105 c 0.486,-0.264 1.093,-0.083 1.356,0.403 0.263,0.486 0.083,1.093 -0.403,1.356 l -3.517,1.905 c -0.149,0.081 -0.313,0.121 -0.476,0.121"
           id="path8"
           inkscape:connector-curvature="0"
           style="fill:#3f24d6;fill-opacity:1" />
        <path
           d="m 19.6301,4.0698 c -0.36,0 -0.69,-0.19 -0.87,-0.5 -0.09,-0.16 -0.13,-0.33 -0.13,-0.5 0,-0.36 0.19,-0.69 0.5,-0.87 l 3.47,-1.98 c 0.47,-0.27 1.11,-0.09 1.37,0.37 0.13,0.23 0.17,0.5 0.1,0.76 -0.07,0.26 -0.24,0.47 -0.47,0.6 l -3.48,1.99 c -0.15,0.08 -0.32,0.13 -0.49,0.13 m 11.29,0.31 c -0.18,0 -0.35,-0.05 -0.5,-0.13 l -3.47,-1.99 c -0.31,-0.17 -0.51,-0.51 -0.51,-0.86 0,-0.18 0.05,-0.35 0.13,-0.5 0.27,-0.46 0.9,-0.64 1.37,-0.37 l 3.47,1.98 c 0.48,0.28 0.65,0.89 0.37,1.37 -0.17,0.31 -0.51,0.5 -0.86,0.5 m -19.11,4.15 c -0.35,0 -0.69,-0.19 -0.87,-0.5 -0.08,-0.15 -0.13,-0.32 -0.13,-0.5 0,-0.36 0.2,-0.69 0.51,-0.86 l 3.47,-1.99 c 0.47,-0.26 1.1,-0.09 1.37,0.37 0.13,0.24 0.16,0.51 0.09,0.76 -0.07,0.26 -0.23,0.48 -0.47,0.61 l -3.47,1.98 c -0.15,0.09 -0.32,0.13 -0.5,0.13 m 26.92,0.32 c -0.18,0 -0.35,-0.05 -0.5,-0.14 l -3.47,-1.98 c -0.31,-0.18 -0.5,-0.51 -0.5,-0.87 0,-0.17 0.04,-0.34 0.13,-0.5 0.26,-0.46 0.9,-0.63 1.36,-0.37 l 3.48,1.99 c 0.47,0.27 0.64,0.88 0.37,1.36 -0.18,0.31 -0.51,0.51 -0.87,0.51 m -34.73,4.15 c -0.36,0 -0.69,-0.19 -0.87,-0.5 -0.13,-0.23 -0.17,-0.5 -0.1,-0.76 0.07,-0.26 0.24,-0.47 0.47,-0.61 l 3.48,-1.98 c 0.46,-0.27 1.1,-0.09 1.36,0.37 0.27,0.48 0.11,1.09 -0.37,1.36 l -3.47,1.99 c -0.15,0.08 -0.33,0.13 -0.5,0.13 m 42,0 c -0.17,0 -0.34,-0.05 -0.5,-0.13 l -2.93,-1.68 c -0.31,-0.17 -0.5,-0.5 -0.5,-0.86 0,-0.18 0.05,-0.35 0.13,-0.5 0.27,-0.46 0.9,-0.64 1.37,-0.37 l 2.93,1.67 c 0.48,0.28 0.64,0.89 0.37,1.37 -0.18,0.31 -0.51,0.5 -0.87,0.5"
           id="path10"
           inkscape:connector-curvature="0"
           style="fill:#3f24d6;fill-opacity:1" />
      </g>
    </g>
  </g>
</svg>
