<?xml version="1.0" encoding="UTF-8" standalone="no"?>
<svg
   xmlns:dc="http://purl.org/dc/elements/1.1/"
   xmlns:cc="http://creativecommons.org/ns#"
   xmlns:rdf="http://www.w3.org/1999/02/22-rdf-syntax-ns#"
   xmlns:svg="http://www.w3.org/2000/svg"
   xmlns="http://www.w3.org/2000/svg"
   xmlns:sodipodi="http://sodipodi.sourceforge.net/DTD/sodipodi-0.dtd"
   xmlns:inkscape="http://www.inkscape.org/namespaces/inkscape"
   version="1.1"
   x="0px"
   y="0px"
   viewBox="0 0 85.900002 71.699997"
   xml:space="preserve"
   id="svg18"
   sodipodi:docname="pic.svg"
   width="85.900002"
   height="71.699997"
   inkscape:version="0.92.1 r15371"><metadata
     id="metadata24"><rdf:RDF><cc:Work
         rdf:about=""><dc:format>image/svg+xml</dc:format><dc:type
           rdf:resource="http://purl.org/dc/dcmitype/StillImage" /><dc:title /></cc:Work></rdf:RDF></metadata><defs
     id="defs22" /><sodipodi:namedview
     pagecolor="#ffffff"
     bordercolor="#666666"
     borderopacity="1"
     objecttolerance="10"
     gridtolerance="10"
     guidetolerance="10"
     inkscape:pageopacity="0"
     inkscape:pageshadow="2"
     inkscape:window-width="1920"
     inkscape:window-height="1017"
     id="namedview20"
     showgrid="false"
     fit-margin-top="0"
     fit-margin-left="0"
     fit-margin-right="0"
     fit-margin-bottom="0"
     inkscape:zoom="1.888"
     inkscape:cx="-49.790678"
     inkscape:cy="18.2"
     inkscape:window-x="-8"
     inkscape:window-y="-8"
     inkscape:window-maximized="1"
     inkscape:current-layer="svg18" /><g
     id="g12"
     style="fill:#3f24d6;fill-opacity:1"
     transform="translate(-7.1,-9)"><g
       id="g10"
       style="fill:#3f24d6;fill-opacity:1"><path
         d="m 83.5,18 h -67 c -5.2,0 -9.4,4.2 -9.4,9.4 v 43.9 c 0,5.2 4.2,9.4 9.4,9.4 h 67.1 c 5.2,0 9.4,-4.2 9.4,-9.4 V 27.4 C 92.9,22.2 88.7,18 83.5,18 Z m 4.4,53.3 c 0,2.4 -2,4.4 -4.4,4.4 h -67 c -2.4,0 -4.4,-2 -4.4,-4.4 V 27.4 c 0,-2.4 2,-4.4 4.4,-4.4 h 67.1 c 2.4,0 4.4,2 4.4,4.4 v 43.9 z"
         id="path2"
         style="fill:#3f24d6;fill-opacity:1"
         inkscape:connector-curvature="0" /><path
         d="M 50,31.7 C 39.9,31.7 31.7,39.9 31.7,50 31.7,60.1 39.9,68.3 50,68.3 60.1,68.3 68.3,60.1 68.3,50 68.3,39.9 60.1,31.7 50,31.7 Z m 0,31.6 c -7.4,0 -13.3,-6 -13.3,-13.3 0,-7.3 6,-13.3 13.3,-13.3 7.3,0 13.3,6 13.3,13.3 0,7.3 -5.9,13.3 -13.3,13.3 z"
         id="path4"
         style="fill:#3f24d6;fill-opacity:1"
         inkscape:connector-curvature="0" /><circle
         cx="75.400002"
         cy="35"
         r="3.7"
         id="circle6"
         style="fill:#3f24d6;fill-opacity:1" /><path
         d="m 25.1,14 h 10.2 c 1.4,0 2.5,-1.1 2.5,-2.5 C 37.8,10.1 36.7,9 35.4,9 H 25.1 c -1.4,0 -2.5,1.1 -2.5,2.5 0,1.4 1.1,2.5 2.5,2.5 z"
         id="path8"
         style="fill:#3f24d6;fill-opacity:1"
         inkscape:connector-curvature="0" /></g></g></svg>