<?xml version="1.0" encoding="UTF-8" standalone="no"?>
<svg
   xmlns:dc="http://purl.org/dc/elements/1.1/"
   xmlns:cc="http://creativecommons.org/ns#"
   xmlns:rdf="http://www.w3.org/1999/02/22-rdf-syntax-ns#"
   xmlns:svg="http://www.w3.org/2000/svg"
   xmlns="http://www.w3.org/2000/svg"
   xmlns:sodipodi="http://sodipodi.sourceforge.net/DTD/sodipodi-0.dtd"
   xmlns:inkscape="http://www.inkscape.org/namespaces/inkscape"
   viewBox="0 0 58 58.00016"
   version="1.1"
   x="0px"
   y="0px"
   id="svg66"
   sodipodi:docname="pieces.svg"
   width="58"
   height="58.00016"
   inkscape:version="0.92.1 r15371">
  <metadata
     id="metadata72">
    <rdf:RDF>
      <cc:Work
         rdf:about="">
        <dc:format>image/svg+xml</dc:format>
        <dc:type
           rdf:resource="http://purl.org/dc/dcmitype/StillImage" />
        <dc:title>18 -Space Geometry- (Outline)</dc:title>
      </cc:Work>
    </rdf:RDF>
  </metadata>
  <defs
     id="defs70" />
  <sodipodi:namedview
     pagecolor="#ffffff"
     bordercolor="#666666"
     borderopacity="1"
     objecttolerance="10"
     gridtolerance="10"
     guidetolerance="10"
     inkscape:pageopacity="0"
     inkscape:pageshadow="2"
     inkscape:window-width="716"
     inkscape:window-height="480"
     id="namedview68"
     showgrid="false"
     fit-margin-top="0"
     fit-margin-left="0"
     fit-margin-right="0"
     fit-margin-bottom="0"
     inkscape:zoom="3.2551724"
     inkscape:cx="32.510932"
     inkscape:cy="21.7505"
     inkscape:window-x="0"
     inkscape:window-y="0"
     inkscape:window-maximized="0"
     inkscape:current-layer="svg66" />
  <title
     id="title2">18 -Space Geometry- (Outline)</title>
  <desc
     id="desc4">Created with Sketch.</desc>
  <g
     id="g60"
     style="fill:#ffffff;fill-rule:evenodd;stroke:none;stroke-width:1"
     transform="translate(-2e-4,-3.3980007e-4)">
    <g
       transform="translate(-954,-450)"
       id="g58"
       style="fill:#ffffff">
      <g
         transform="translate(954,450)"
         id="g56"
         style="fill:#ffffff">
        <path
           d="m 11.4894,3.9155 c -0.354,0 -0.697,-0.188 -0.879,-0.521 -0.265,-0.485 -0.086,-1.092 0.4,-1.357 l 3.511,-1.915 c 0.483,-0.264 1.092,-0.086 1.357,0.398 0.264,0.485 0.086,1.093 -0.4,1.357 l -3.511,1.916 c -0.152,0.083 -0.316,0.122 -0.478,0.122 m -7.488,4.084 c -0.355,0 -0.698,-0.188 -0.879,-0.521 -0.265,-0.484 -0.086,-1.092 0.399,-1.356 l 2.221,-1.212 c 0.482,-0.265 1.092,-0.085 1.356,0.399 0.265,0.485 0.086,1.092 -0.399,1.357 l -2.221,1.211 c -0.151,0.083 -0.315,0.122 -0.477,0.122"
           id="path6"
           inkscape:connector-curvature="0"
           style="fill:#ffffff" />
        <path
           d="m 18.5109,3.9155 c -0.162,0 -0.326,-0.039 -0.478,-0.122 l -3.511,-1.916 c -0.486,-0.264 -0.664,-0.872 -0.4,-1.357 0.265,-0.484 0.874,-0.662 1.357,-0.398 l 3.511,1.915 c 0.486,0.265 0.665,0.872 0.4,1.357 -0.182,0.333 -0.525,0.521 -0.879,0.521 m 7.488,4.084 c -0.162,0 -0.326,-0.039 -0.477,-0.122 l -2.221,-1.211 c -0.485,-0.265 -0.664,-0.872 -0.399,-1.357 0.264,-0.484 0.874,-0.664 1.356,-0.399 l 2.221,1.212 c 0.485,0.264 0.664,0.872 0.399,1.356 -0.181,0.333 -0.524,0.521 -0.879,0.521"
           id="path8"
           inkscape:connector-curvature="0"
           style="fill:#ffffff" />
        <path
           d="m 6.0549,12.5278 c -0.15,0 -0.303,-0.034 -0.446,-0.105 l -1.056,-0.528 c -0.494,-0.247 -0.694,-0.848 -0.447,-1.342 0.248,-0.494 0.846,-0.694 1.342,-0.447 l 1.055,0.527 c 0.494,0.248 0.695,0.848 0.448,1.342 -0.176,0.351 -0.529,0.553 -0.896,0.553 m 8.944,4.472 c -0.15,0 -0.302,-0.034 -0.446,-0.105 l -3.578,-1.789 c -0.494,-0.247 -0.694,-0.848 -0.447,-1.342 0.248,-0.494 0.847,-0.695 1.341,-0.447 l 3.579,1.789 c 0.494,0.247 0.694,0.847 0.447,1.341 -0.176,0.351 -0.528,0.553 -0.896,0.553"
           id="path10"
           inkscape:connector-curvature="0"
           style="fill:#ffffff" />
        <path
           d="m 23.9455,12.5278 c -0.367,0 -0.72,-0.202 -0.896,-0.553 -0.247,-0.494 -0.046,-1.094 0.448,-1.342 l 1.055,-0.527 c 0.495,-0.247 1.094,-0.047 1.342,0.447 0.247,0.494 0.047,1.095 -0.447,1.342 l -1.056,0.528 c -0.143,0.071 -0.296,0.105 -0.446,0.105 m -8.944,4.472 c -0.368,0 -0.72,-0.202 -0.896,-0.553 -0.247,-0.494 -0.047,-1.094 0.447,-1.341 l 3.579,-1.789 c 0.494,-0.248 1.093,-0.047 1.341,0.447 0.247,0.494 0.047,1.095 -0.447,1.342 l -3.578,1.789 c -0.144,0.071 -0.296,0.105 -0.446,0.105"
           id="path12"
           inkscape:connector-curvature="0"
           style="fill:#ffffff" />
        <path
           d="m 6.0549,28.5278 c -0.15,0 -0.303,-0.034 -0.446,-0.105 l -3.578,-1.79 c -0.495,-0.247 -0.695,-0.847 -0.448,-1.341 0.248,-0.495 0.847,-0.695 1.342,-0.448 l 3.578,1.789 c 0.494,0.248 0.695,0.848 0.448,1.342 -0.176,0.351 -0.529,0.553 -0.896,0.553 m 8.944,4.472 c -0.15,0 -0.302,-0.034 -0.446,-0.105 l -3.578,-1.789 c -0.494,-0.247 -0.694,-0.848 -0.447,-1.342 0.248,-0.494 0.847,-0.694 1.341,-0.447 l 3.579,1.789 c 0.494,0.247 0.694,0.847 0.447,1.341 -0.176,0.351 -0.528,0.553 -0.896,0.553"
           id="path14"
           inkscape:connector-curvature="0"
           style="fill:#ffffff" />
        <path
           d="m 51.9455,28.5278 c -0.367,0 -0.72,-0.202 -0.896,-0.553 -0.247,-0.494 -0.046,-1.094 0.448,-1.342 l 3.578,-1.789 c 0.494,-0.247 1.095,-0.047 1.342,0.448 0.247,0.494 0.047,1.094 -0.448,1.341 l -3.578,1.79 c -0.143,0.071 -0.296,0.105 -0.446,0.105 m -8.944,4.472 c -0.368,0 -0.72,-0.202 -0.896,-0.553 -0.247,-0.494 -0.047,-1.094 0.447,-1.341 l 3.579,-1.789 c 0.493,-0.247 1.093,-0.047 1.341,0.447 0.247,0.494 0.047,1.095 -0.447,1.342 l -3.578,1.789 c -0.144,0.071 -0.296,0.105 -0.446,0.105"
           id="path16"
           inkscape:connector-curvature="0"
           style="fill:#ffffff" />
        <path
           d="m 15.0012,33 c -0.367,0 -0.72,-0.202 -0.896,-0.553 -0.247,-0.494 -0.046,-1.094 0.448,-1.342 l 14,-7 c 0.494,-0.246 1.094,-0.046 1.342,0.448 0.247,0.494 0.046,1.094 -0.448,1.342 l -14,7 C 15.3042,32.966 15.1512,33 15.0012,33"
           id="path18"
           inkscape:connector-curvature="0"
           style="fill:#ffffff" />
        <path
           d="m 1.0002,14 c -0.553,0 -1,-0.448 -1,-1 V 9 c 0,-0.552 0.447,-1 1,-1 0.553,0 1,0.448 1,1 v 4 c 0,0.552 -0.447,1 -1,1 m 0,10 c -0.553,0 -1,-0.448 -1,-1 v -4 c 0,-0.552 0.447,-1 1,-1 0.553,0 1,0.448 1,1 v 4 c 0,0.552 -0.447,1 -1,1"
           id="path20"
           inkscape:connector-curvature="0"
           style="fill:#ffffff" />
        <path
           d="m 29.0002,14 c -0.553,0 -1,-0.448 -1,-1 V 9 c 0,-0.552 0.447,-1 1,-1 0.553,0 1,0.448 1,1 v 4 c 0,0.552 -0.447,1 -1,1 m 0,8 c -0.553,0 -1,-0.448 -1,-1 v -2 c 0,-0.552 0.447,-1 1,-1 0.553,0 1,0.448 1,1 v 2 c 0,0.552 -0.447,1 -1,1"
           id="path22"
           inkscape:connector-curvature="0"
           style="fill:#ffffff" />
        <path
           d="m 15.0002,21 c -0.553,0 -1,-0.448 -1,-1 v -4 c 0,-0.552 0.447,-1 1,-1 0.553,0 1,0.448 1,1 v 4 c 0,0.552 -0.447,1 -1,1 m 0,10 c -0.553,0 -1,-0.448 -1,-1 v -4 c 0,-0.552 0.447,-1 1,-1 0.553,0 1,0.448 1,1 v 4 c 0,0.552 -0.447,1 -1,1"
           id="path24"
           inkscape:connector-curvature="0"
           style="fill:#ffffff" />
        <path
           d="m 46.5109,3.9155 c -0.162,0 -0.326,-0.039 -0.478,-0.122 l -3.511,-1.916 c -0.486,-0.264 -0.664,-0.872 -0.4,-1.357 0.265,-0.484 0.874,-0.662 1.357,-0.398 l 3.511,1.915 c 0.486,0.265 0.665,0.872 0.4,1.357 -0.182,0.333 -0.525,0.521 -0.879,0.521 m 7.488,4.084 c -0.162,0 -0.326,-0.039 -0.477,-0.122 l -2.221,-1.211 c -0.485,-0.265 -0.664,-0.872 -0.399,-1.357 0.264,-0.484 0.874,-0.664 1.356,-0.399 l 2.221,1.212 c 0.485,0.264 0.664,0.872 0.399,1.356 -0.181,0.333 -0.524,0.521 -0.879,0.521"
           id="path26"
           inkscape:connector-curvature="0"
           style="fill:#ffffff" />
        <path
           d="m 39.4894,3.9155 c -0.354,0 -0.697,-0.188 -0.879,-0.521 -0.265,-0.485 -0.086,-1.092 0.4,-1.357 l 3.511,-1.915 c 0.483,-0.264 1.092,-0.086 1.357,0.398 0.264,0.485 0.086,1.093 -0.4,1.357 l -3.511,1.916 c -0.152,0.083 -0.316,0.122 -0.478,0.122 m -7.488,4.084 c -0.355,0 -0.698,-0.188 -0.879,-0.521 -0.265,-0.484 -0.086,-1.092 0.399,-1.356 l 2.221,-1.212 c 0.483,-0.265 1.092,-0.085 1.356,0.399 0.265,0.485 0.086,1.092 -0.399,1.357 l -2.221,1.211 c -0.151,0.083 -0.315,0.122 -0.477,0.122"
           id="path28"
           inkscape:connector-curvature="0"
           style="fill:#ffffff" />
        <path
           d="m 51.9455,12.5278 c -0.367,0 -0.72,-0.202 -0.896,-0.553 -0.247,-0.494 -0.046,-1.094 0.448,-1.342 l 1.055,-0.527 c 0.495,-0.247 1.094,-0.047 1.342,0.447 0.247,0.494 0.047,1.095 -0.447,1.342 l -1.056,0.528 c -0.143,0.071 -0.296,0.105 -0.446,0.105 m -8.944,4.472 c -0.368,0 -0.72,-0.202 -0.896,-0.553 -0.247,-0.494 -0.047,-1.094 0.447,-1.341 l 3.579,-1.789 c 0.493,-0.248 1.093,-0.047 1.341,0.447 0.247,0.494 0.047,1.095 -0.447,1.342 l -3.578,1.789 c -0.144,0.071 -0.296,0.105 -0.446,0.105"
           id="path30"
           inkscape:connector-curvature="0"
           style="fill:#ffffff" />
        <path
           d="m 34.0549,12.5278 c -0.15,0 -0.303,-0.034 -0.446,-0.105 l -1.056,-0.528 c -0.494,-0.247 -0.694,-0.848 -0.447,-1.342 0.248,-0.494 0.848,-0.694 1.342,-0.447 l 1.055,0.527 c 0.494,0.248 0.695,0.848 0.448,1.342 -0.176,0.351 -0.529,0.553 -0.896,0.553 m 8.944,4.472 c -0.15,0 -0.302,-0.034 -0.446,-0.105 l -3.578,-1.789 c -0.494,-0.247 -0.694,-0.848 -0.447,-1.342 0.248,-0.494 0.847,-0.695 1.341,-0.447 l 3.579,1.789 c 0.494,0.247 0.694,0.847 0.447,1.341 -0.176,0.351 -0.528,0.553 -0.896,0.553"
           id="path32"
           inkscape:connector-curvature="0"
           style="fill:#ffffff" />
        <path
           d="m 57.0002,14 c -0.553,0 -1,-0.448 -1,-1 V 9 c 0,-0.552 0.447,-1 1,-1 0.553,0 1,0.448 1,1 v 4 c 0,0.552 -0.447,1 -1,1 m 0,10 c -0.553,0 -1,-0.448 -1,-1 v -4 c 0,-0.552 0.447,-1 1,-1 0.553,0 1,0.448 1,1 v 4 c 0,0.552 -0.447,1 -1,1"
           id="path34"
           inkscape:connector-curvature="0"
           style="fill:#ffffff" />
        <path
           d="m 43.0002,21 c -0.553,0 -1,-0.448 -1,-1 v -4 c 0,-0.552 0.447,-1 1,-1 0.553,0 1,0.448 1,1 v 4 c 0,0.552 -0.447,1 -1,1 m 0,10 c -0.553,0 -1,-0.448 -1,-1 v -4 c 0,-0.552 0.447,-1 1,-1 0.553,0 1,0.448 1,1 v 4 c 0,0.552 -0.447,1 -1,1"
           id="path36"
           inkscape:connector-curvature="0"
           style="fill:#ffffff" />
        <path
           d="m 42.9992,33 c -0.15,0 -0.303,-0.034 -0.446,-0.105 l -14,-7 c -0.494,-0.248 -0.695,-0.848 -0.448,-1.342 0.248,-0.494 0.848,-0.694 1.342,-0.448 l 14,7 c 0.494,0.248 0.695,0.848 0.448,1.342 -0.176,0.351 -0.529,0.553 -0.896,0.553"
           id="path38"
           inkscape:connector-curvature="0"
           style="fill:#ffffff" />
        <path
           d="m 42.9992,33 c -0.15,0 -0.303,-0.034 -0.446,-0.105 l -14,-7 c -0.494,-0.248 -0.695,-0.848 -0.448,-1.342 0.248,-0.494 0.848,-0.694 1.342,-0.448 l 14,7 c 0.494,0.248 0.695,0.848 0.448,1.342 -0.176,0.351 -0.529,0.553 -0.896,0.553"
           id="path40"
           inkscape:connector-curvature="0"
           style="fill:#ffffff" />
        <path
           d="m 28.9992,40 c -0.15,0 -0.303,-0.034 -0.446,-0.105 l -14,-7 c -0.494,-0.248 -0.695,-0.848 -0.448,-1.342 0.248,-0.494 0.848,-0.695 1.342,-0.448 l 14,7 c 0.494,0.248 0.695,0.848 0.448,1.342 -0.176,0.351 -0.529,0.553 -0.896,0.553"
           id="path42"
           inkscape:connector-curvature="0"
           style="fill:#ffffff" />
        <path
           d="m 29.0012,40 c -0.367,0 -0.72,-0.202 -0.896,-0.553 -0.247,-0.494 -0.046,-1.094 0.448,-1.342 l 14,-7 c 0.494,-0.247 1.094,-0.046 1.342,0.448 0.247,0.494 0.046,1.094 -0.448,1.342 l -14,7 C 29.3042,39.966 29.1512,40 29.0012,40"
           id="path44"
           inkscape:connector-curvature="0"
           style="fill:#ffffff" />
        <path
           d="m 28.9992,58 c -0.15,0 -0.303,-0.034 -0.446,-0.105 l -14,-7 c -0.494,-0.248 -0.695,-0.848 -0.448,-1.342 0.248,-0.494 0.848,-0.694 1.342,-0.448 l 14,7 c 0.494,0.248 0.695,0.848 0.448,1.342 -0.176,0.351 -0.529,0.553 -0.896,0.553"
           id="path46"
           inkscape:connector-curvature="0"
           style="fill:#ffffff" />
        <path
           d="m 29.0002,58.0005 c -0.388,0 -0.757,-0.228 -0.919,-0.606 -0.218,-0.508 0.018,-1.096 0.525,-1.313 l 14,-6 c 0.503,-0.219 1.096,0.016 1.313,0.524 0.218,0.508 -0.018,1.096 -0.525,1.313 l -14,6 c -0.128,0.056 -0.262,0.082 -0.394,0.082"
           id="path48"
           inkscape:connector-curvature="0"
           style="fill:#ffffff" />
        <path
           d="m 43.0002,52 c -0.553,0 -1,-0.448 -1,-1 V 32 c 0,-0.552 0.447,-1 1,-1 0.553,0 1,0.448 1,1 v 19 c 0,0.552 -0.447,1 -1,1"
           id="path50"
           inkscape:connector-curvature="0"
           style="fill:#ffffff" />
        <path
           d="m 15.0002,51 c -0.553,0 -1,-0.448 -1,-1 V 32 c 0,-0.552 0.447,-1 1,-1 0.553,0 1,0.448 1,1 v 18 c 0,0.552 -0.447,1 -1,1"
           id="path52"
           inkscape:connector-curvature="0"
           style="fill:#ffffff" />
        <path
           d="m 29.0002,58 c -0.553,0 -1,-0.448 -1,-1 V 39 c 0,-0.552 0.447,-1 1,-1 0.553,0 1,0.448 1,1 v 18 c 0,0.552 -0.447,1 -1,1"
           id="path54"
           inkscape:connector-curvature="0"
           style="fill:#ffffff" />
      </g>
    </g>
  </g>
</svg>
