<?xml version="1.0" encoding="UTF-8" standalone="no"?>
<svg
   xmlns:sketch="http://www.bohemiancoding.com/sketch/ns"
   xmlns:dc="http://purl.org/dc/elements/1.1/"
   xmlns:cc="http://creativecommons.org/ns#"
   xmlns:rdf="http://www.w3.org/1999/02/22-rdf-syntax-ns#"
   xmlns:svg="http://www.w3.org/2000/svg"
   xmlns="http://www.w3.org/2000/svg"
   xmlns:sodipodi="http://sodipodi.sourceforge.net/DTD/sodipodi-0.dtd"
   xmlns:inkscape="http://www.inkscape.org/namespaces/inkscape"
   viewBox="0 0 28.024595 28.027645"
   version="1.1"
   x="0px"
   y="0px"
   id="svg16"
   sodipodi:docname="ruler.svg"
   width="28.024595"
   height="28.027645"
   inkscape:version="0.92.1 r15371">
  <metadata
     id="metadata22">
    <rdf:RDF>
      <cc:Work
         rdf:about="">
        <dc:format>image/svg+xml</dc:format>
        <dc:type
           rdf:resource="http://purl.org/dc/dcmitype/StillImage" />
        <dc:title>design_003-ruler-editor-measurement-graphic</dc:title>
      </cc:Work>
    </rdf:RDF>
  </metadata>
  <defs
     id="defs20" />
  <sodipodi:namedview
     pagecolor="#ffffff"
     bordercolor="#666666"
     borderopacity="1"
     objecttolerance="10"
     gridtolerance="10"
     guidetolerance="10"
     inkscape:pageopacity="0"
     inkscape:pageshadow="2"
     inkscape:window-width="1920"
     inkscape:window-height="1017"
     id="namedview18"
     showgrid="false"
     fit-margin-top="0"
     fit-margin-left="0"
     fit-margin-right="0"
     fit-margin-bottom="0"
     inkscape:zoom="6.2933333"
     inkscape:cx="-47.637712"
     inkscape:cy="8.7090051"
     inkscape:window-x="-8"
     inkscape:window-y="-8"
     inkscape:window-maximized="1"
     inkscape:current-layer="svg16" />
  <title
     id="title2">design_003-ruler-editor-measurement-graphic</title>
  <desc
     id="desc4">Created with Sketch.</desc>
  <g
     sketch:type="MSPage"
     id="g10"
     style="fill:#3f24d6;fill-rule:evenodd;stroke:none;stroke-width:1;fill-opacity:1"
     transform="translate(0,-1.9737333)">
    <g
       sketch:type="MSArtboardGroup"
       transform="translate(-135,-45)"
       id="g8"
       style="fill:#3f24d6;fill-opacity:1">
      <path
         d="M 161.99868,75.001378 H 135.5032 c -0.27791,0 -0.5032,-0.21669 -0.5032,-0.5032 V 48.002695 c 0,-1.100535 0.63249,-1.360207 1.41794,-0.574755 l 26.1555,26.155498 c 0.7831,0.783107 0.51849,1.41794 -0.57476,1.41794 z M 145.25984,61.201892 c -0.19346,0.193462 -0.5143,0.186291 -0.70385,-0.0033 -0.19526,-0.195262 -0.20099,-0.506114 -0.003,-0.703847 l 1.77103,-1.771027 -1.41421,-1.414214 -1.05735,1.057348 c -0.19709,0.197092 -0.52087,0.192864 -0.71042,0.0033 -0.19526,-0.195263 -0.20221,-0.504899 0.003,-0.71042 l 1.05735,-1.057347 -1.41422,-1.414214 -1.77102,1.771027 c -0.19346,0.193462 -0.5143,0.186292 -0.70385,-0.0033 -0.19526,-0.195262 -0.20099,-0.506113 -0.003,-0.703846 L 142.08112,54.481117 136,48.4 v 25.597265 l 25.59726,-2e-6 -6.08111,-6.081117 -1.77103,1.771028 c -0.19346,0.193461 -0.5143,0.186291 -0.70385,-0.0033 -0.19526,-0.195262 -0.20099,-0.506113 -0.003,-0.703846 l 1.77103,-1.771028 -1.41421,-1.414213 -1.05735,1.057348 c -0.19709,0.197091 -0.52087,0.192864 -0.71042,0.0033 -0.19526,-0.195262 -0.20221,-0.504899 0.003,-0.710419 l 1.05735,-1.057348 -1.41421,-1.414214 -1.77103,1.771028 c -0.19346,0.193461 -0.5143,0.186291 -0.70385,-0.0033 -0.19526,-0.195262 -0.20099,-0.506113 -0.003,-0.703846 l 1.77103,-1.771027 -1.41421,-1.414214 -1.05735,1.057348 c -0.19709,0.197091 -0.52087,0.192864 -0.71042,0.0033 -0.19526,-0.195262 -0.20221,-0.504899 0.003,-0.710419 l 1.05735,-1.057348 -1.41421,-1.414213 z m 5.17834,9.793137 H 139.49409 C 139.22121,70.995029 139,70.761839 139,70.500936 V 59.556853 c 0,-1.102831 0.62998,-1.366873 1.41239,-0.584462 l 10.61025,10.610248 c 0.78004,0.780041 0.51002,1.41239 -0.58446,1.41239 z M 140,70.000915 V 59.96 l 10.04091,10.040914 z"
         sketch:type="MSShapeGroup"
         id="path6"
         style="fill:#3f24d6;fill-opacity:1"
         inkscape:connector-curvature="0" />
    </g>
  </g>
</svg>
