<?xml version="1.0" encoding="UTF-8" standalone="no"?>
<svg
   xmlns:dc="http://purl.org/dc/elements/1.1/"
   xmlns:cc="http://creativecommons.org/ns#"
   xmlns:rdf="http://www.w3.org/1999/02/22-rdf-syntax-ns#"
   xmlns:svg="http://www.w3.org/2000/svg"
   xmlns="http://www.w3.org/2000/svg"
   xmlns:sodipodi="http://sodipodi.sourceforge.net/DTD/sodipodi-0.dtd"
   xmlns:inkscape="http://www.inkscape.org/namespaces/inkscape"
   version="1.1"
   x="0px"
   y="0px"
   viewBox="0 0 85.131424 89.980156"
   xml:space="preserve"
   id="svg24"
   sodipodi:docname="wireframe.svg"
   width="85.131424"
   height="89.980156"
   inkscape:version="0.92.1 r15371"><metadata
     id="metadata30"><rdf:RDF><cc:Work
         rdf:about=""><dc:format>image/svg+xml</dc:format><dc:type
           rdf:resource="http://purl.org/dc/dcmitype/StillImage" /><dc:title /></cc:Work></rdf:RDF></metadata><defs
     id="defs28" /><sodipodi:namedview
     pagecolor="#ffffff"
     bordercolor="#666666"
     borderopacity="1"
     objecttolerance="10"
     gridtolerance="10"
     guidetolerance="10"
     inkscape:pageopacity="0"
     inkscape:pageshadow="2"
     inkscape:window-width="1920"
     inkscape:window-height="1017"
     id="namedview26"
     showgrid="false"
     fit-margin-top="0"
     fit-margin-left="0"
     fit-margin-right="0"
     fit-margin-bottom="0"
     inkscape:zoom="1.888"
     inkscape:cx="-140.47493"
     inkscape:cy="35.099996"
     inkscape:window-x="-8"
     inkscape:window-y="-8"
     inkscape:window-maximized="1"
     inkscape:current-layer="g18" /><style
     type="text/css"
     id="style2">
	.st0{display:none;}
	.st1{display:inline;}
</style><g
     class="st0"
     id="g6"
     style="display:none"
     transform="translate(-5.0935765,-7.6198477)"><path
       class="st1"
       d="m 90.6,60.9 v -21 c 2.9,-0.4 5.2,-2.9 5.2,-6 0,-3.3 -2.7,-6 -6,-6 -1.4,0 -2.6,0.5 -3.6,1.2 l -15,-14.9 c 0.8,-1 1.2,-2.3 1.2,-3.6 0,-3.3 -2.7,-6 -6,-6 -3,0 -5.5,2.3 -6,5.2 H 39.3 c -0.4,-2.9 -2.9,-5.2 -6,-5.2 -3.3,0 -6,2.7 -6,6 0,1.4 0.5,2.6 1.2,3.6 L 13.6,29.1 c -1,-0.8 -2.3,-1.2 -3.6,-1.2 -3.3,0 -6,2.7 -6,6 0,3 2.3,5.5 5.2,6 V 61 C 6.3,61.4 4,63.9 4,67 c 0,3.3 2.7,6 6,6 1.4,0 2.6,-0.5 3.6,-1.2 l 14.9,14.9 c -0.8,1 -1.2,2.3 -1.2,3.6 0,3.3 2.7,6 6,6 3,0 5.5,-2.3 6,-5.2 h 21.1 c 0.4,2.9 2.9,5.2 6,5.2 3.3,0 6,-2.7 6,-6 0,-1.4 -0.5,-2.6 -1.2,-3.6 L 86.1,71.8 c 1,0.8 2.3,1.2 3.6,1.2 3.3,0 6,-2.7 6,-6 0,-3.1 -2.2,-5.6 -5.1,-6.1 z M 66.4,84.2 c -0.6,0 -1.2,0.1 -1.8,0.3 L 52.9,55.6 c 0.9,-0.5 1.6,-1.3 2.1,-2.1 l 28.8,11.9 c -0.1,0.5 -0.2,1 -0.2,1.5 0,1.4 0.5,2.6 1.2,3.6 L 70,85.4 c -1,-0.7 -2.3,-1.2 -3.6,-1.2 z m -6,5.2 H 39.3 C 39,87.6 37.9,86 36.4,85.1 L 48.3,56.3 c 0.5,0.1 1,0.2 1.5,0.2 0.5,0 1,-0.1 1.4,-0.2 l 11.7,29 c -1.3,0.8 -2.3,2.3 -2.5,4.1 z M 29.8,85.4 14.9,70.5 c 0.8,-1 1.2,-2.3 1.2,-3.6 0,-0.5 -0.1,-1 -0.2,-1.5 L 44.7,53.5 c 0.5,0.9 1.2,1.6 2.1,2.1 L 34.9,84.4 c -0.5,-0.1 -1,-0.2 -1.5,-0.2 -1.4,0 -2.6,0.5 -3.6,1.2 z M 15.2,37 44,48.9 c -0.1,0.5 -0.2,1 -0.2,1.5 0,0.5 0.1,1 0.2,1.5 L 15.2,63.8 c -0.9,-1.5 -2.5,-2.6 -4.3,-2.9 v -21 c 1.8,-0.3 3.4,-1.4 4.3,-2.9 z M 33.4,16.6 c 0.5,0 1,-0.1 1.5,-0.2 l 11.9,28.8 c -0.9,0.5 -1.6,1.2 -2.1,2.1 L 15.9,35.4 c 0.1,-0.5 0.2,-1 0.2,-1.5 0,-1.4 -0.5,-2.6 -1.2,-3.6 L 29.8,15.4 c 1,0.8 2.2,1.2 3.6,1.2 z m 5.9,-5.2 h 21.1 c 0.3,1.8 1.4,3.4 2.9,4.3 L 51.4,44.6 c -0.5,-0.1 -1,-0.2 -1.5,-0.2 -0.5,0 -1,0.1 -1.5,0.2 l -12,-28.8 c 1.6,-1 2.7,-2.5 2.9,-4.4 z m 30.7,4 14.9,14.9 c -0.8,1 -1.2,2.3 -1.2,3.6 0,0.5 0.1,1 0.2,1.5 L 55,47.3 C 54.5,46.4 53.8,45.7 52.9,45.2 L 64.8,16.4 c 0.5,0.1 1,0.2 1.5,0.2 1.4,0 2.7,-0.4 3.7,-1.2 z m -15.8,35 c 0,2.4 -2,4.4 -4.4,4.4 -2.4,0 -4.4,-2 -4.4,-4.4 0,-2.4 2,-4.4 4.4,-4.4 2.5,0 4.4,2 4.4,4.4 z M 84.5,63.8 55.7,51.9 c 0.1,-0.5 0.2,-1 0.2,-1.5 0,-0.5 -0.1,-1 -0.2,-1.5 L 84.5,37 c 0.9,1.5 2.5,2.6 4.3,2.9 V 61 c -1.8,0.2 -3.4,1.3 -4.3,2.8 z M 94,33.9 c 0,2.4 -1.9,4.3 -4.3,4.3 -2.4,0 -4.3,-1.9 -4.3,-4.3 0,-2.4 1.9,-4.3 4.3,-4.3 2.4,0 4.3,1.9 4.3,4.3 z M 66.4,6.3 c 2.4,0 4.3,1.9 4.3,4.3 0,2.4 -1.9,4.3 -4.3,4.3 C 64,14.9 62,13 62,10.6 62,8.2 64,6.3 66.4,6.3 Z m -33,0 c 2.4,0 4.3,1.9 4.3,4.3 0,2.4 -1.9,4.3 -4.3,4.3 -2.4,0 -4.3,-1.9 -4.3,-4.3 0,-2.4 1.9,-4.3 4.3,-4.3 z M 5.7,33.9 c 0,-2.4 1.9,-4.3 4.3,-4.3 2.4,0 4.3,1.9 4.3,4.3 0,2.4 -1.9,4.3 -4.3,4.3 -2.4,0 -4.3,-1.9 -4.3,-4.3 z m 0,33 c 0,-2.1 1.5,-3.8 3.5,-4.2 v 0 c 0.3,-0.1 0.5,-0.1 0.8,-0.1 0,0 0,0 0,0 2.4,0 4.3,1.9 4.3,4.3 0,2.4 -1.9,4.3 -4.3,4.3 -2.4,0 -4.3,-1.9 -4.3,-4.3 z m 27.7,27.6 c -2.4,0 -4.3,-1.9 -4.3,-4.3 0,-2.4 1.9,-4.3 4.3,-4.3 2.4,0 4.3,1.9 4.3,4.3 0,2.4 -2,4.3 -4.3,4.3 z m 33,0.1 c -2.4,0 -4.3,-1.9 -4.3,-4.3 0,-2.4 1.9,-4.3 4.3,-4.3 2.4,0 4.3,1.9 4.3,4.3 0,2.4 -2,4.3 -4.3,4.3 z M 89.7,71.2 c -2.4,0 -4.3,-1.9 -4.3,-4.3 0,-2.4 1.9,-4.3 4.3,-4.3 2.4,0 4.3,1.9 4.3,4.3 0,2.4 -1.9,4.3 -4.3,4.3 z"
       id="path4"
       inkscape:connector-curvature="0"
       style="display:inline" /></g><g
     class="st0"
     id="g10"
     style="display:none"
     transform="translate(-5.0935765,-7.6198477)"><path
       class="st1"
       d="m 95.2,48.3 c -1.2,-2.9 -4.5,-4.2 -7.3,-3 -1.9,0.8 -3.1,2.5 -3.4,4.4 H 58.6 C 58.5,48.8 58.3,48 58,47.1 v 0 C 57.7,46.3 57.2,45.5 56.6,44.8 L 74.9,26.5 c 1,0.7 2.1,1.1 3.4,1.1 0.7,0 1.4,-0.1 2.1,-0.4 2.9,-1.2 4.2,-4.5 3,-7.3 v 0 c -0.6,-1.4 -1.7,-2.5 -3,-3 -1.4,-0.6 -2.9,-0.6 -4.3,0 -1.4,0.6 -2.5,1.7 -3,3 -0.6,1.4 -0.6,2.9 0,4.3 0.2,0.4 0.4,0.8 0.7,1.2 L 55.5,43.7 c -1.4,-1.1 -3,-1.8 -4.8,-2 V 15.8 c 0.5,-0.1 0.9,-0.2 1.4,-0.4 1.4,-0.6 2.5,-1.7 3,-3 0.6,-1.4 0.6,-2.9 0,-4.3 -0.6,-1.4 -1.7,-2.5 -3,-3 -1.4,-0.6 -2.9,-0.6 -4.3,0 -2.9,1.2 -4.2,4.5 -3,7.3 0.8,1.9 2.5,3.1 4.4,3.4 v 25.9 c -0.9,0.1 -1.7,0.3 -2.6,0.6 -0.8,0.3 -1.6,0.8 -2.3,1.4 L 26,25.3 c 0.3,-0.4 0.5,-0.8 0.7,-1.2 0.6,-1.4 0.6,-2.9 0,-4.3 -0.6,-1.4 -1.7,-2.5 -3,-3 -1.4,-0.6 -2.9,-0.6 -4.3,0 -1.4,0.6 -2.5,1.7 -3,3 -0.6,1.4 -0.6,2.9 0,4.3 0.9,2.2 3,3.5 5.2,3.5 0.7,0 1.4,-0.1 2.1,-0.4 v 0 c 0.4,-0.2 0.8,-0.4 1.2,-0.7 l 18.3,18.3 c -1.1,1.4 -1.8,3 -2,4.8 H 15.3 c -0.1,-0.5 -0.2,-0.9 -0.4,-1.4 -0.6,-1.4 -1.7,-2.5 -3,-3 -1.4,-0.6 -2.9,-0.6 -4.3,0 -2.9,1.2 -4.2,4.5 -3,7.3 0.9,2.2 3,3.5 5.2,3.5 0.7,0 1.4,-0.1 2.1,-0.4 v 0 c 1.4,-0.6 2.5,-1.7 3,-3 0.2,-0.4 0.3,-0.9 0.4,-1.4 h 25.9 c 0.1,0.9 0.3,1.7 0.6,2.6 0.3,0.8 0.8,1.6 1.4,2.3 L 24.8,74.3 C 24.4,74 24,73.8 23.6,73.6 22.2,73 20.7,73 19.3,73.6 c -2.9,1.2 -4.2,4.5 -3,7.3 0.6,1.4 1.7,2.5 3,3 0.7,0.3 1.4,0.4 2.2,0.4 0.7,0 1.5,-0.1 2.1,-0.4 1.4,-0.6 2.5,-1.7 3,-3 0.6,-1.4 0.6,-2.9 0,-4.3 -0.2,-0.4 -0.4,-0.8 -0.7,-1.2 L 44.2,57.1 c 1.4,1.1 3,1.8 4.8,2 V 85 c -0.5,0.1 -0.9,0.2 -1.4,0.4 -1.4,0.6 -2.5,1.7 -3,3 -0.6,1.4 -0.6,2.9 0,4.3 0.9,2.2 3,3.5 5.2,3.5 0.7,0 1.4,-0.1 2.1,-0.4 1.4,-0.6 2.5,-1.7 3,-3 0.6,-1.4 0.6,-2.9 0,-4.3 -0.6,-1.4 -1.7,-2.5 -3,-3 C 51.5,85.3 51,85.2 50.5,85.1 V 59.2 c 0.9,-0.1 1.7,-0.3 2.6,-0.6 0.8,-0.3 1.6,-0.8 2.2,-1.3 l 18.2,18.5 c -0.2,0.3 -0.4,0.6 -0.5,1 -0.6,1.4 -0.6,2.9 0,4.3 0.9,2.2 3,3.5 5.2,3.5 0.7,0 1.4,-0.1 2.1,-0.4 1.4,-0.6 2.5,-1.7 3,-3 0.6,-1.4 0.6,-2.9 0,-4.3 -0.6,-1.4 -1.7,-2.5 -3,-3 -1.4,-0.6 -2.9,-0.6 -4.3,0 -0.5,0.2 -1,0.5 -1.4,0.9 l -18,-18.7 c 1.2,-1.4 1.9,-3.1 2,-4.9 h 25.9 c 0.1,0.5 0.2,0.9 0.4,1.4 0.6,1.4 1.7,2.5 3,3 0.7,0.3 1.4,0.4 2.2,0.4 0.7,0 1.5,-0.1 2.1,-0.4 1.4,-0.6 2.5,-1.7 3,-3 0.6,-1.4 0.6,-2.9 0,-4.3 z M 74.6,20.5 c 0.4,-1 1.2,-1.8 2.2,-2.2 0.5,-0.2 1,-0.3 1.5,-0.3 0.5,0 1,0.1 1.5,0.3 1,0.4 1.8,1.2 2.2,2.2 0.8,2.1 -0.1,4.4 -2.2,5.3 -2.1,0.8 -4.4,-0.1 -5.3,-2.2 -0.3,-1 -0.3,-2.1 0.1,-3.1 z M 23,25.7 v 0 c -2.1,0.8 -4.4,-0.1 -5.3,-2.2 -0.4,-1 -0.4,-2.1 0,-3.1 0.4,-1 1.2,-1.8 2.2,-2.2 0.5,-0.2 1,-0.3 1.5,-0.3 0.5,0 1,0.1 1.5,0.3 1,0.4 1.8,1.2 2.2,2.2 0.4,1 0.4,2.1 0,3.1 -0.3,1 -1.1,1.8 -2.1,2.2 z m -9.6,26.2 c -0.4,1 -1.2,1.8 -2.2,2.2 -1,0.4 -2.1,0.4 -3.1,0 -1,-0.4 -1.8,-1.2 -2.2,-2.2 -0.4,-1 -0.4,-2.1 0,-3.1 0.4,-1 1.2,-1.8 2.2,-2.2 0.5,-0.2 1,-0.3 1.5,-0.3 0.5,0 1,0.1 1.5,0.3 1,0.4 1.8,1.2 2.2,2.2 0.5,1 0.5,2.1 0.1,3.1 z m 11.7,28.4 c -0.4,1 -1.2,1.8 -2.2,2.2 -1,0.4 -2.1,0.4 -3.1,0 -1,-0.4 -1.8,-1.2 -2.2,-2.2 -0.4,-1 -0.4,-2.1 0,-3.1 0.4,-1 1.2,-1.8 2.2,-2.2 0.5,-0.2 1,-0.3 1.5,-0.3 0.5,0 1,0.1 1.5,0.3 1,0.4 1.8,1.2 2.2,2.2 0.4,1 0.6,2.1 0.1,3.1 z m 51.6,-5.2 c 0.5,-0.2 1,-0.3 1.5,-0.3 0.5,0 1,0.1 1.5,0.3 1,0.4 1.8,1.2 2.2,2.2 0.4,1 0.4,2.1 0,3.1 -0.4,1 -1.2,1.8 -2.2,2.2 v 0 c -1,0.4 -2.1,0.4 -3.1,0 -1,-0.4 -1.8,-1.2 -2.2,-2.2 -0.4,-1 -0.4,-2.1 0,-3.1 0.4,-1 1.3,-1.8 2.3,-2.2 z M 46.2,11.8 c -0.8,-2 0.1,-4.4 2.2,-5.3 0.5,-0.2 1,-0.3 1.5,-0.3 0.5,0 1,0.1 1.5,0.3 1,0.4 1.8,1.2 2.2,2.2 v 0 c 0.4,1 0.4,2.1 0,3.1 -0.4,1 -1.2,1.8 -2.2,2.2 -1,0.4 -2.1,0.4 -3.1,0 -0.9,-0.5 -1.7,-1.2 -2.1,-2.2 z m 7.3,77.3 c 0.4,1 0.4,2.1 0,3.1 -0.4,1 -1.2,1.8 -2.2,2.2 -2,0.8 -4.4,-0.1 -5.3,-2.2 -0.4,-1 -0.4,-2.1 0,-3.1 0.4,-1 1.2,-1.8 2.2,-2.2 0.2,-0.1 0.5,-0.2 0.7,-0.2 0.3,-0.1 0.5,-0.1 0.8,-0.1 0.3,0 0.5,0 0.8,0.1 0.3,0.1 0.5,0.1 0.7,0.2 1.2,0.4 1.9,1.2 2.3,2.2 z m -0.9,-32 c -3.7,1.5 -7.9,-0.2 -9.4,-3.9 -1.5,-3.7 0.2,-7.9 3.9,-9.4 0.9,-0.4 1.8,-0.5 2.7,-0.5 2.8,0 5.5,1.7 6.7,4.4 v 0 c 1.5,3.6 -0.2,7.8 -3.9,9.4 z M 93.8,52 c -0.4,1 -1.2,1.8 -2.2,2.2 -1,0.4 -2.1,0.4 -3.1,0 -1,-0.4 -1.8,-1.2 -2.2,-2.2 -0.4,-1 -0.4,-2.1 0,-3.1 0.4,-1 1.2,-1.8 2.2,-2.2 0.5,-0.2 1,-0.3 1.5,-0.3 0.5,0 1,0.1 1.5,0.3 1,0.4 1.8,1.2 2.2,2.2 0.5,1 0.5,2.1 0.1,3.1 z"
       id="path8"
       inkscape:connector-curvature="0"
       style="display:inline" /></g><g
     class="st0"
     id="g14"
     style="display:none"
     transform="translate(-5.0935765,-7.6198477)"><path
       class="st1"
       d="m 92.1,82.9 c -0.7,-1.7 -2.1,-3.1 -3.8,-3.8 -2.4,-1 -5,-0.6 -6.9,0.9 L 58.5,57 c 2.5,-3 3.3,-7.3 1.7,-11.2 -0.4,-1.1 -1,-2 -1.7,-2.9 L 81.4,20.1 c 0.5,0.3 1,0.6 1.5,0.9 0.9,0.4 1.8,0.5 2.7,0.5 2.8,0 5.4,-1.6 6.5,-4.3 0.7,-1.7 0.7,-3.6 0,-5.4 C 91.3,10 90,8.7 88.3,8 c -3.6,-1.5 -7.7,0.2 -9.2,3.8 -1,2.4 -0.6,5 0.9,6.9 L 57,41.5 c -0.8,-0.7 -1.8,-1.3 -2.8,-1.7 -2.7,-1.1 -5.7,-1.1 -8.4,0 -1.1,0.4 -2,1 -2.9,1.7 L 20,18.5 c 0.3,-0.5 0.7,-1 0.9,-1.5 1.5,-3.6 -0.2,-7.7 -3.8,-9.2 v 0 C 13.5,6.3 9.4,8 7.9,11.6 c -0.7,1.7 -0.7,3.6 0,5.4 0.7,1.7 2.1,3.1 3.8,3.8 0.9,0.4 1.8,0.5 2.7,0.5 1.5,0 3,-0.5 4.2,-1.4 l 22.9,23 c -0.7,0.8 -1.3,1.8 -1.7,2.8 -1.1,2.7 -1.1,5.7 0,8.4 0.4,1.1 1,2 1.7,2.8 l -22.8,23 c -0.5,-0.3 -1,-0.6 -1.5,-0.9 -3.6,-1.5 -7.7,0.2 -9.2,3.8 -0.7,1.7 -0.7,3.6 0,5.4 0.7,1.8 2,3.1 3.7,3.8 0.9,0.4 1.8,0.5 2.7,0.5 2.8,0 5.4,-1.6 6.5,-4.3 1,-2.4 0.6,-5 -0.9,-6.9 L 43,58.4 c 2,1.6 4.5,2.6 7.1,2.6 1.4,0 2.8,-0.3 4.2,-0.8 1.1,-0.4 2,-1 2.8,-1.7 L 80,81.4 c -0.3,0.5 -0.6,1 -0.9,1.5 -1.5,3.6 0.2,7.7 3.8,9.2 v 0 c 0.9,0.4 1.8,0.5 2.7,0.5 2.8,0 5.4,-1.6 6.5,-4.3 0.7,-1.7 0.7,-3.7 0,-5.4 z M 80.9,12.5 c 0.8,-1.9 2.7,-3.1 4.7,-3.1 0.6,0 1.3,0.1 1.9,0.4 1.2,0.5 2.2,1.5 2.7,2.7 0.5,1.2 0.5,2.6 0,3.9 -1.1,2.6 -4,3.8 -6.6,2.7 -2.5,-1 -3.8,-4 -2.7,-6.6 z m -68.4,6.6 c -1.2,-0.5 -2.2,-1.5 -2.7,-2.7 -0.5,-1.2 -0.5,-2.6 0,-3.9 0.5,-1.2 1.5,-2.2 2.7,-2.7 0.6,-0.3 1.3,-0.4 1.9,-0.4 0.7,0 1.3,0.1 1.9,0.4 v 0 c 2.6,1.1 3.8,4 2.7,6.6 -1,2.5 -3.9,3.7 -6.5,2.7 z m 6.6,68.4 c -1.1,2.6 -4,3.8 -6.6,2.7 -1.2,-0.5 -2.2,-1.5 -2.7,-2.7 -0.5,-1.2 -0.5,-2.6 0,-3.9 0.5,-1.2 1.5,-2.2 2.7,-2.7 0.6,-0.3 1.3,-0.4 1.9,-0.4 0.7,0 1.3,0.1 1.9,0.4 2.6,1 3.9,4 2.8,6.6 z M 53.5,58.3 c -4.6,1.9 -9.9,-0.3 -11.8,-4.9 -0.9,-2.2 -0.9,-4.7 0,-6.9 0.9,-2.2 2.7,-3.9 4.9,-4.9 1.1,-0.5 2.3,-0.7 3.4,-0.7 1.2,0 2.3,0.2 3.5,0.7 2.2,0.9 3.9,2.7 4.9,4.9 1.8,4.6 -0.3,9.9 -4.9,11.8 z m 36.7,29.2 c -1.1,2.6 -4,3.8 -6.6,2.7 -2.6,-1.1 -3.8,-4 -2.7,-6.6 1.1,-2.6 4,-3.8 6.6,-2.7 1.2,0.5 2.2,1.5 2.7,2.7 0.5,1.3 0.5,2.7 0,3.9 z"
       id="path12"
       inkscape:connector-curvature="0"
       style="display:inline" /></g><g
     id="g18"
     style="fill:#3f24d6;fill-opacity:1;stroke-width:0.12206896;stroke-miterlimit:4;stroke-dasharray:none"
     transform="matrix(0.84531528,0,0,0.79390916,2.2785875,5.5353408)"><path
       d="M 85.8,84.7 C 85.3,84.5 84.7,84.3 84.2,84.3 V 15.1 c 2.3,-0.3 4.5,-1.7 5.5,-4.1 0.7,-1.7 0.7,-3.5 0,-5.1 C 89,4.2 87.7,3 86,2.3 82.6,0.9 78.7,2.5 77.2,5.9 v 0 c -0.7,1.6 -0.7,3.4 -0.1,4.9 l -60,34.7 c -0.7,-0.9 -1.6,-1.6 -2.7,-2 -3.4,-1.4 -7.3,0.2 -8.8,3.6 v 0 c -1.4,3.4 0.2,7.3 3.6,8.8 0.8,0.3 1.7,0.5 2.6,0.5 2,0 4,-0.9 5.3,-2.6 L 77,88.4 c -1.4,3.4 0.3,7.3 3.6,8.7 0.8,0.3 1.7,0.5 2.6,0.5 2.6,0 5.1,-1.6 6.2,-4.1 0.7,-1.7 0.7,-3.5 0,-5.1 -0.7,-1.7 -1.9,-3 -3.6,-3.7 z M 78,86.7 18.1,52.2 c 0.2,-0.5 0.3,-1 0.4,-1.5 h 31 c 0.3,2.3 1.8,4.3 4.1,5.2 0.8,0.3 1.7,0.5 2.6,0.5 1,0 2,-0.2 2.9,-0.6 L 78.9,86 c -0.4,0.1 -0.7,0.4 -0.9,0.7 z M 57.9,45.2 c 1.2,0.5 2.1,1.4 2.6,2.6 0.5,1.2 0.5,2.5 0,3.7 -0.5,1.2 -1.4,2.1 -2.6,2.6 -1.2,0.5 -2.5,0.5 -3.7,0 -2.4,-1 -3.6,-3.8 -2.6,-6.3 v 0 c 1.1,-2.4 3.9,-3.6 6.3,-2.6 z M 80.4,84.8 60.5,54.7 c 0.7,-0.7 1.3,-1.5 1.7,-2.4 0.7,-1.7 0.7,-3.5 0,-5.1 -0.4,-1 -1,-1.8 -1.8,-2.5 L 80.3,14.5 c 0.1,0.1 0.3,0.1 0.4,0.2 0.5,0.2 0.9,0.3 1.4,0.4 v 69.2 c -0.5,0.1 -1.1,0.2 -1.7,0.5 z M 79,6.6 v 0 C 80,4.2 82.9,3 85.3,4 c 1.2,0.5 2.1,1.4 2.6,2.6 0.5,1.2 0.5,2.5 0,3.7 -1,2.4 -3.8,3.6 -6.3,2.6 C 79.2,11.9 78,9.1 79,6.6 Z M 78.9,13.3 59,43.6 c -0.1,0 -0.2,-0.1 -0.3,-0.1 -3.4,-1.4 -7.3,0.2 -8.8,3.6 v 0 c -0.2,0.5 -0.4,1.1 -0.4,1.6 h -31 c -0.1,-0.5 -0.2,-1 -0.4,-1.5 L 78.2,12.5 c 0.2,0.3 0.4,0.6 0.7,0.8 z M 10,54.1 C 7.6,53.1 6.4,50.3 7.4,47.8 v 0 c 1,-2.4 3.8,-3.6 6.3,-2.6 1.2,0.5 2.1,1.4 2.6,2.6 0.5,1.2 0.5,2.5 0,3.7 -1,2.4 -3.8,3.6 -6.3,2.6 z m 77.7,38.6 c -1,2.4 -3.8,3.6 -6.3,2.6 -2.4,-1 -3.6,-3.8 -2.6,-6.3 v 0 c 1,-2.4 3.8,-3.6 6.3,-2.6 1.2,0.5 2.1,1.4 2.6,2.6 0.5,1.2 0.4,2.5 0,3.7 z"
       id="path16"
       style="fill:#3f24d6;fill-opacity:1;stroke-width:1.22068957;stroke-miterlimit:4;stroke-dasharray:none"
       inkscape:connector-curvature="0" /></g></svg>