<?xml version="1.0" encoding="UTF-8" standalone="no"?>
<svg
   xmlns:dc="http://purl.org/dc/elements/1.1/"
   xmlns:cc="http://creativecommons.org/ns#"
   xmlns:rdf="http://www.w3.org/1999/02/22-rdf-syntax-ns#"
   xmlns:svg="http://www.w3.org/2000/svg"
   xmlns="http://www.w3.org/2000/svg"
   xmlns:sodipodi="http://sodipodi.sourceforge.net/DTD/sodipodi-0.dtd"
   xmlns:inkscape="http://www.inkscape.org/namespaces/inkscape"
   viewBox="0 0 15.941103 17.972954"
   version="1.1"
   x="0px"
   y="0px"
   id="svg16"
   sodipodi:docname="xy.svg"
   width="15.941103"
   height="17.972954"
   inkscape:version="0.92.1 r15371">
  <metadata
     id="metadata22">
    <rdf:RDF>
      <cc:Work
         rdf:about="">
        <dc:format>image/svg+xml</dc:format>
        <dc:type
           rdf:resource="http://purl.org/dc/dcmitype/StillImage" />
        <dc:title>geo-1b</dc:title>
      </cc:Work>
    </rdf:RDF>
  </metadata>
  <defs
     id="defs20" />
  <sodipodi:namedview
     pagecolor="#ffffff"
     bordercolor="#666666"
     borderopacity="1"
     objecttolerance="10"
     gridtolerance="10"
     guidetolerance="10"
     inkscape:pageopacity="0"
     inkscape:pageshadow="2"
     inkscape:window-width="1920"
     inkscape:window-height="1017"
     id="namedview18"
     showgrid="false"
     fit-margin-top="0"
     fit-margin-left="0"
     fit-margin-right="0"
     fit-margin-bottom="0"
     inkscape:zoom="7.8666667"
     inkscape:cx="-14.116045"
     inkscape:cy="5.8743304"
     inkscape:window-x="-8"
     inkscape:window-y="-8"
     inkscape:window-maximized="1"
     inkscape:current-layer="svg16" />
  <title
     id="title2">geo-1b</title>
  <desc
     id="desc4">Created with Sketch.</desc>
  <g
     id="g10"
     transform="rotate(-150,9.6591555,11.000544)"
     style="fill:#3f24d6;fill-rule:evenodd;stroke:none;stroke-width:1;fill-opacity:1">
    <g
       id="g8"
       style="fill:#3f24d6;fill-opacity:1">
      <path
         d="m 7.2453,4.7573 4.196,6.993 -4.196,6.992 -3.729,-6.992 z m 8.846,14.243 h -8.417 l 4.2,-7 h 8.417 z m 4.879,-7.221 c 0.002,-0.011 0.012,-0.018 0.012,-0.029 0,-0.012 -0.01,-0.018 -0.012,-0.03 -0.002,-0.023 -0.009,-0.04 -0.018,-0.062 -0.005,-0.012 10e-4,-0.025 -0.005,-0.037 l -4.5,-7.5 c -0.006,-0.01 -0.019,-0.01 -0.026,-0.018 -0.02,-0.027 -0.045,-0.039 -0.075,-0.056 -0.029,-0.016 -0.052,-0.031 -0.084,-0.035 -0.011,-0.002 -0.018,-0.012 -0.03,-0.012 h -9 c -0.013,0 -0.022,0.012 -0.035,0.014 -0.023,0.004 -0.04,0.007 -0.061,0.016 -0.011,0.005 -0.022,-0.001 -0.032,0.005 -0.01,0.006 -0.01,0.019 -0.019,0.026 -0.019,0.014 -0.03,0.028 -0.044,0.047 -0.008,0.01 -0.023,0.012 -0.029,0.024 l -4,7.5 c -0.005,0.008 10e-4,0.017 -0.003,0.025 -0.013,0.031 -0.009,0.059 -0.009,0.093 0,0.033 -0.004,0.062 0.009,0.092 0.004,0.008 -0.002,0.017 0.003,0.025 l 4,7.5 c 0.008,0.016 0.023,0.023 0.034,0.036 0.01,0.013 0.018,0.022 0.031,0.032 0.009,0.009 0.015,0.021 0.026,0.028 0,0 0,0.001 0.001,0.001 v 0 c 0.039,0.023 0.083,0.036 0.128,0.036 h 9 c 0.058,0 0.11,-0.027 0.156,-0.064 0.011,-0.01 0.02,-0.018 0.029,-0.03 0.01,-0.01 0.022,-0.016 0.03,-0.028 l 4.5,-7.5 c 0.006,-0.012 0,-0.025 0.005,-0.037 0.009,-0.022 0.016,-0.039 0.018,-0.062 z"
         id="path6"
         inkscape:connector-curvature="0"
         style="fill:#3f24d6;fill-opacity:1" />
    </g>
  </g>
</svg>
