<?xml version="1.0" encoding="UTF-8" standalone="no"?>
<svg
   xmlns:dc="http://purl.org/dc/elements/1.1/"
   xmlns:cc="http://creativecommons.org/ns#"
   xmlns:rdf="http://www.w3.org/1999/02/22-rdf-syntax-ns#"
   xmlns:svg="http://www.w3.org/2000/svg"
   xmlns="http://www.w3.org/2000/svg"
   xmlns:sodipodi="http://sodipodi.sourceforge.net/DTD/sodipodi-0.dtd"
   xmlns:inkscape="http://www.inkscape.org/namespaces/inkscape"
   version="1.1"
   x="0px"
   y="0px"
   viewBox="0 0 80.667 80.000999"
   xml:space="preserve"
   id="svg10"
   sodipodi:docname="discover.svg"
   width="80.667"
   height="80.000999"
   inkscape:version="0.92.1 r15371"><metadata
     id="metadata16"><rdf:RDF><cc:Work
         rdf:about=""><dc:format>image/svg+xml</dc:format><dc:type
           rdf:resource="http://purl.org/dc/dcmitype/StillImage" /><dc:title></dc:title></cc:Work></rdf:RDF></metadata><defs
     id="defs14" /><sodipodi:namedview
     pagecolor="#ffffff"
     bordercolor="#666666"
     borderopacity="1"
     objecttolerance="10"
     gridtolerance="10"
     guidetolerance="10"
     inkscape:pageopacity="0"
     inkscape:pageshadow="2"
     inkscape:window-width="1920"
     inkscape:window-height="1017"
     id="namedview12"
     showgrid="false"
     fit-margin-top="0"
     fit-margin-left="14"
     fit-margin-right="14"
     fit-margin-bottom="0"
     inkscape:zoom="1.888"
     inkscape:cx="-38.256831"
     inkscape:cy="27.501003"
     inkscape:window-x="-8"
     inkscape:window-y="-8"
     inkscape:window-maximized="1"
     inkscape:current-layer="svg10" /><style
     type="text/css"
     id="style2">
	.st0{fill:none;stroke:#000000;stroke-width:2;stroke-linecap:round;stroke-linejoin:round;stroke-miterlimit:10;}
	.st1{fill:none;stroke:#000000;stroke-width:1.8;stroke-linecap:round;stroke-linejoin:round;stroke-miterlimit:10;}
	.st2{fill:none;stroke:#000000;stroke-width:2;stroke-linecap:round;stroke-linejoin:round;}
	.st3{fill:none;stroke:#000000;stroke-width:2;stroke-linecap:round;stroke-linejoin:round;stroke-dasharray:2.9177,3.8902;}
	.st4{fill:none;stroke:#000000;stroke-width:2;stroke-miterlimit:10;}
</style><path
     d="m 18.766949,46.635448 c 0,7.216013 3.546174,13.857104 9.515703,17.881561 l -1.713302,7.234849 c -0.05733,0.244056 -8.19e-4,0.500396 0.154787,0.69695 0.154787,0.196555 0.39229,0.311212 0.642079,0.311212 h 25.934568 c 0.250608,0 0.487292,-0.114657 0.642079,-0.311212 0.155606,-0.195735 0.212115,-0.452894 0.154787,-0.69695 l -1.713302,-7.234849 c 5.970348,-4.025276 9.515703,-10.665548 9.515703,-17.881561 0,-7.790935 -4.168597,-14.920955 -10.922707,-18.756228 0.12858,-0.672381 0.193279,-1.339848 0.193279,-1.990935 0,-1.927055 -0.516775,-3.81398 -1.49791,-5.480599 l 1.54623,-6.135782 c 2.064643,-0.315306 3.651822,-2.101497 3.651822,-4.252951 V 8.0599579 c 0,-0.4528947 -0.366902,-0.8189778 -0.818978,-0.8189778 H 26.616032 c -0.452076,0 -0.818978,0.3660831 -0.818978,0.8189778 v 1.9581761 c 0,2.151454 1.587179,3.938464 3.651822,4.252951 l 1.54623,6.135782 c -0.981135,1.666619 -1.49791,3.554363 -1.49791,5.480599 0,0.651087 0.0647,1.317735 0.193279,1.990935 -6.754929,3.836092 -10.923526,10.965293 -10.923526,18.757047 z m 3.930274,-9.278199 4.564982,8.145553 h -6.818808 c 0.162976,-2.89181 0.945919,-5.659955 2.253826,-8.145553 z m 19.017483,8.145553 4.405281,-7.855635 4.408558,7.855635 z m 9.024316,1.637956 -4.584638,8.177493 -4.581361,-8.177493 z m -20.652162,-1.637956 4.403643,-7.853997 4.400368,7.853997 z m 9.024316,1.637956 -4.587095,8.17913 -4.59037,-8.17913 z m -11.639312,0 -4.846711,8.636939 C 21.264831,53.144684 20.49663,50.205372 20.420465,47.140758 Z m 1.231742,1.152301 4.652613,8.291331 h -9.305225 z m 11.637674,0.0016 4.644423,8.289693 h -9.292122 z m 11.628666,0 4.645241,8.289693 h -9.292121 z m 6.071082,7.482181 -4.840159,-8.63612 h 7.044847 c -0.07698,3.064614 -0.844366,6.003107 -2.204688,8.63612 z M 53.354018,45.502764 57.946845,37.3179 c 1.321011,2.496245 2.111325,5.278312 2.275939,8.184864 z m -1.412737,-0.828805 -4.575628,-8.154562 h 9.151257 z m -11.638493,-0.0016 -4.567439,-8.152924 h 9.138973 z m -11.628665,0 -4.569077,-8.152924 h 9.138973 z m -0.272719,26.448886 1.418469,-5.988365 h 21.026435 l 1.418469,5.988365 z m 22.612794,-7.665631 c -0.0172,0.01065 -0.02866,0.02703 -0.04422,0.03931 h -21.27459 c -0.01638,-0.01228 -0.02703,-0.02866 -0.04422,-0.03931 -2.205508,-1.403728 -4.069501,-3.186643 -5.53629,-5.233268 h 32.435614 c -1.46597,2.045806 -3.329963,3.82954 -5.53629,5.233268 z M 47.342721,27.51068 49.10598,23.170098 c 0.274358,0.877944 0.425869,1.791104 0.425869,2.718187 0,0.52824 -0.06879,1.072861 -0.169529,1.622395 z m 0.723977,-6.134144 -1.940159,4.777098 -1.942615,-4.781193 z m -11.631123,-0.01228 -1.942615,4.786925 -1.943434,-4.79102 z m -5.131714,6.146428 c -0.101554,-0.549534 -0.169529,-1.094974 -0.169529,-1.622395 0,-0.906609 0.142502,-1.800932 0.404575,-2.660859 l 1.737871,4.283254 z m 6.09647,-4.168597 1.69037,4.168597 h -3.381559 z m 0.966394,-1.976193 3.881136,0.0041 -1.940159,4.780374 z m 4.849167,1.974555 1.693646,4.170235 H 41.523065 Z M 30.892734,13.300597 c -0.09173,-0.363627 -0.419317,-0.619148 -0.794409,-0.619148 -1.469246,0 -2.664134,-1.194888 -2.664134,-2.664134 V 8.8789356 H 53.23199 v 1.1391984 c 0,1.469246 -1.194888,2.664134 -2.664134,2.664134 -0.375092,0 -0.702683,0.255521 -0.794409,0.619148 L 48.151871,19.7394 32.511034,19.72302 Z m -0.103191,15.848038 h 19.087914 c 2.626462,1.436487 4.83934,3.40531 6.541995,5.732845 H 24.247548 c 1.701836,-2.327535 3.914714,-4.296358 6.541995,-5.732845 z"
     id="path4"
     style="fill:#3601d8;fill-opacity:1;stroke:none;stroke-width:0.81897777;stroke-opacity:1"
     inkscape:connector-curvature="0" /></svg>