<?xml version="1.0" encoding="UTF-8" standalone="no"?>
<!-- Created with Inkscape (http://www.inkscape.org/) -->

<svg
   xmlns:dc="http://purl.org/dc/elements/1.1/"
   xmlns:cc="http://creativecommons.org/ns#"
   xmlns:rdf="http://www.w3.org/1999/02/22-rdf-syntax-ns#"
   xmlns:svg="http://www.w3.org/2000/svg"
   xmlns="http://www.w3.org/2000/svg"
   xmlns:sodipodi="http://sodipodi.sourceforge.net/DTD/sodipodi-0.dtd"
   xmlns:inkscape="http://www.inkscape.org/namespaces/inkscape"
   width="188.14308mm"
   height="28.861467mm"
   viewBox="0 0 188.14308 28.861467"
   version="1.1"
   id="home-logo-svg"
   inkscape:version="0.92.1 r15371"
   sodipodi:docname="logo-alt.svg">
  <defs
     id="defs4619" />
  <sodipodi:namedview
     id="base"
     pagecolor="#ffffff"
     bordercolor="#666666"
     borderopacity="1.0"
     inkscape:pageopacity="0.0"
     inkscape:pageshadow="2"
     inkscape:zoom="0.64"
     inkscape:cx="30.142054"
     inkscape:cy="-119.40393"
     inkscape:document-units="mm"
     inkscape:current-layer="layer1"
     showgrid="false"
     inkscape:window-width="1920"
     inkscape:window-height="1017"
     inkscape:window-x="-8"
     inkscape:window-y="-8"
     inkscape:window-maximized="1"
     fit-margin-top="2"
     fit-margin-left="2"
     fit-margin-right="2"
     fit-margin-bottom="2"
     inkscape:pagecheckerboard="true" />
  <metadata
     id="metadata4622">
    <rdf:RDF>
      <cc:Work
         rdf:about="">
        <dc:format>image/svg+xml</dc:format>
        <dc:type
           rdf:resource="http://purl.org/dc/dcmitype/StillImage" />
        <dc:title></dc:title>
      </cc:Work>
    </rdf:RDF>
  </metadata>
  <g
     inkscape:label="Layer 1"
     inkscape:groupmode="layer"
     id="layer1"
     transform="translate(-9.433904,-120.91497)">
    <g
       transform="matrix(0.28222223,0,0,0.28222223,243.92226,237.36454)"
       style="font-style:normal;font-weight:normal;font-size:40px;line-height:125%;font-family:sans-serif;letter-spacing:0px;word-spacing:0px;fill:#21146a;fill-opacity:1;stroke:none;stroke-width:1px;stroke-linecap:butt;stroke-linejoin:miter;stroke-opacity:1"
       id="logo-dark">
      <path
         id="path4224-3-1-3"
         d="m -577.14632,-357.13864 -30.7617,2.91407 v 0.63281 h 13.3164 v 6.06445 c -2.6074,1.55273 -4.9219,2.65038 -6.9433,3.29492 -2.0215,0.64453 -4.1465,0.9668 -6.3731,0.9668 -4.6875,0 -8.3496,-1.49414 -10.9863,-4.48242 -1.1541,-1.32264 -2.0521,-3.0355 -2.6953,-5.13867 l 10.4062,-1.02735 -30.0918,2.84961 c 0.6262,2.23114 1.4511,4.34802 2.4746,6.34961 2.6661,5.15625 6.4004,9.03711 11.2051,11.64453 4.834,2.60742 11.0742,3.91211 18.7207,3.91211 6.2109,0 11.5723,-0.71875 16.084,-2.15429 4.541,-1.46484 9.7558,-4.20313 15.6445,-8.2168 z"
         style="font-style:normal;font-variant:normal;font-weight:normal;font-stretch:normal;font-size:90px;line-height:125%;font-family:'Arial Black';-inkscape-font-specification:'Arial Black, ';letter-spacing:7.76000261px;word-spacing:1.63000011px;fill:#21146a;fill-opacity:1;stroke:none;stroke-width:1px;stroke-linecap:butt;stroke-linejoin:miter;stroke-opacity:1"
         inkscape:connector-curvature="0" />
      <path
         style="font-style:normal;font-variant:normal;font-weight:normal;font-stretch:normal;font-size:90px;line-height:125%;font-family:'Arial Black';-inkscape-font-specification:'Arial Black, ';letter-spacing:7.76000261px;word-spacing:1.63000011px;fill:#21146a;fill-opacity:1;stroke:none;stroke-width:1px;stroke-linecap:butt;stroke-linejoin:miter;stroke-opacity:1"
         d="m -773.98454,-338.58187 v 8.32453 h -19.9952 v -6.43946"
         id="path4244-7-0-6"
         inkscape:connector-curvature="0" />
      <path
         style="font-style:normal;font-variant:normal;font-weight:normal;font-stretch:normal;font-size:90px;line-height:125%;font-family:'Arial Black';-inkscape-font-specification:'Arial Black, ';letter-spacing:7.76000261px;word-spacing:1.63000011px;fill:#21146a;fill-opacity:1;stroke:none;stroke-width:1px;stroke-linecap:butt;stroke-linejoin:miter;stroke-opacity:1"
         d="m -736.71092,-342.09582 6.1004,11.83848 h -22.50002 l -5.2902,-9.79341"
         id="path4240-5-6-7"
         inkscape:connector-curvature="0" />
      <path
         style="font-style:normal;font-variant:normal;font-weight:normal;font-stretch:normal;font-size:90px;line-height:125%;font-family:'Arial Black';-inkscape-font-specification:'Arial Black, ';letter-spacing:7.76000261px;word-spacing:1.63000011px;fill:#21146a;fill-opacity:1;stroke:none;stroke-width:1px;stroke-linecap:butt;stroke-linejoin:miter;stroke-opacity:1"
         d="m -660.05512,-349.32209 7.1655,19.06475 h -20.8301 l -3.164,-10.63477 h -22.6758 l -3.1201,10.63477 h -20.3467 l 5.1158,-13.61106"
         id="path4233-3-3-5"
         inkscape:connector-curvature="0" />
      <path
         style="font-style:normal;font-variant:normal;font-weight:normal;font-stretch:normal;font-size:90px;line-height:125%;font-family:'Arial Black';-inkscape-font-specification:'Arial Black, ';letter-spacing:7.76000261px;word-spacing:1.63000011px;fill:#21146a;fill-opacity:1;stroke:none;stroke-width:1px;stroke-linecap:butt;stroke-linejoin:miter;stroke-opacity:1"
         d="m -541.30512,-360.51711 v 30.25977 h -16.3037 l -10e-5,-28.72266"
         id="path4217-5-2-3"
         inkscape:connector-curvature="0" />
      <path
         style="font-style:normal;font-variant:normal;font-weight:normal;font-stretch:normal;font-size:90px;line-height:125%;font-family:'Arial Black';-inkscape-font-specification:'Arial Black, ';letter-spacing:7.76000261px;word-spacing:1.63000011px;fill:#21146a;fill-opacity:1;stroke:none;stroke-width:1px;stroke-linecap:butt;stroke-linejoin:miter;stroke-opacity:1"
         d="m -505.37772,-363.90398 -8.6374,33.64664 h -14.7217 l -7.8543,-30.70341"
         id="path4213-6-0-5"
         inkscape:connector-curvature="0" />
      <path
         style="font-style:normal;font-variant:normal;font-weight:normal;font-stretch:normal;font-size:90px;line-height:125%;font-family:'Arial Black';-inkscape-font-specification:'Arial Black, ';letter-spacing:7.76000261px;word-spacing:1.63000011px;fill:#21146a;fill-opacity:1;stroke:none;stroke-width:1px;stroke-linecap:butt;stroke-linejoin:miter;stroke-opacity:1"
         d="m -485.14302,-365.81203 v 35.55469 h -16.2598 v -34.02149"
         id="path4209-2-6-6"
         inkscape:connector-curvature="0" />
      <path
         style="font-style:normal;font-variant:normal;font-weight:normal;font-stretch:normal;font-size:90px;line-height:125%;font-family:'Arial Black';-inkscape-font-specification:'Arial Black, ';letter-spacing:7.76000261px;word-spacing:1.63000011px;fill:#21146a;fill-opacity:1;stroke:none;stroke-width:1px;stroke-linecap:butt;stroke-linejoin:miter;stroke-opacity:1"
         d="m -433.42542,-370.68703 h 19.5873 v 13.13965 h -30.9814 v 12.7002 h 34.3652 v 14.58984 h -54.3164 v -37.47461"
         id="path4414-9-1-2"
         inkscape:connector-curvature="0" />
      <path
         id="path4195-1-5-9"
         d="m -330.18532,-380.41988 -18.7637,1.76953 v 19.60937 l -12.543,-18.42773 -30.3047,2.85742 v 44.35351 h 18.7207 v -35.37499 l 24.127,35.37499 h 18.7637 z"
         style="font-style:normal;font-variant:normal;font-weight:normal;font-stretch:normal;font-size:90px;line-height:125%;font-family:'Arial Black';-inkscape-font-specification:'Arial Black, ';letter-spacing:7.76000261px;word-spacing:1.63000011px;fill:#21146a;fill-opacity:1;stroke:none;stroke-width:1px;stroke-linecap:butt;stroke-linejoin:miter;stroke-opacity:1"
         inkscape:connector-curvature="0" />
      <path
         style="font-style:normal;font-variant:normal;font-weight:normal;font-stretch:normal;font-size:90px;line-height:125%;font-family:'Arial Black';-inkscape-font-specification:'Arial Black, ';letter-spacing:7.76000261px;word-spacing:1.63000011px;fill:#21146a;fill-opacity:1;stroke:none;stroke-width:1px;stroke-linecap:butt;stroke-linejoin:miter;stroke-opacity:1"
         d="m -253.12282,-387.68508 v 8.91211 h -20.3027 v 48.51563 h -19.9073 v -48.51563 h -20.3027 V -381.98"
         id="path4418-2-5-1"
         inkscape:connector-curvature="0" />
    </g>
    <g
       transform="matrix(0.28222223,0,0,0.28222223,-2.4441681,62.590997)"
       style="font-style:normal;font-weight:normal;font-size:40px;line-height:125%;font-family:sans-serif;letter-spacing:0px;word-spacing:0px;fill:#21146a;fill-opacity:1;stroke:none;stroke-width:1px;stroke-linecap:butt;stroke-linejoin:miter;stroke-opacity:1"
       id="logo-light"
       inkscape:label="#logo-light"
       class="home-logo-light">
      <path
         inkscape:connector-curvature="0"
         id="path4219-9-6-0"
         d="m 353.59774,214.84456 v 35.70118 l 16.3047,-1.53711 v -18.8711 l 4.7129,18.42774 13.5391,-1.27735 -8.3653,-32.44336 z"
         style="font-style:normal;font-variant:normal;font-weight:normal;font-stretch:normal;font-size:90px;font-family:'Arial Black';-inkscape-font-specification:'Arial Black, ';letter-spacing:7.76000261px;word-spacing:1.63000011px;fill:#21146a;fill-opacity:1" />
      <path
         inkscape:connector-curvature="0"
         id="path4207-3-5-9"
         d="m 399.96104,214.84456 -8.2441,32.10743 14.1133,-1.33008 3.9746,-15.48438 v 15.10938 l 16.2597,-1.5332 v -28.86915 z"
         style="font-style:normal;font-variant:normal;font-weight:normal;font-stretch:normal;font-size:90px;font-family:'Arial Black';-inkscape-font-specification:'Arial Black, ';letter-spacing:7.76000261px;word-spacing:1.63000011px;fill:#21146a;fill-opacity:1" />
      <path
         inkscape:connector-curvature="0"
         id="path4406-6-6-3"
         d="m 117.22669,214.84456 v 57.98438 l 19.99609,-1.88477 v -17.82226 h 1.75781 c 1.81641,0 3.44141,0.49804 4.87696,1.49414 1.05469,0.76172 2.25585,2.41601 3.60351,4.96484 l 5.3457,9.89453 21.68948,-2.04492 -3.5235,-6.83789 c -0.46863,-0.9375 -1.40621,-2.27149 -2.81246,-4 -1.37695,-1.72852 -2.43164,-2.85547 -3.16406,-3.38281 -1.08399,-0.79102 -2.8125,-1.58203 -5.18555,-2.37305 2.95899,-0.67383 5.28711,-1.52343 6.98633,-2.54883 2.66601,-1.61132 4.76174,-3.70703 6.28514,-6.28515 1.5235,-2.60742 2.2852,-5.69727 2.2852,-9.27149 0,-4.10156 -0.9961,-7.57421 -2.9883,-10.41601 -1.99222,-2.8711 -4.61525,-4.83399 -7.8672,-5.88867 -3.25195,-1.05469 -7.95312,-1.58204 -14.10547,-1.58204 z m 19.99609,13.00782 h 8.74414 c 3.63281,0 6.10938,0.55663 7.42774,1.66992 1.31836,1.11328 1.97656,2.71093 1.97656,4.79101 0,1.40625 -0.42383,2.65039 -1.27344,3.73438 -0.82031,1.08398 -1.89062,1.75781 -3.20898,2.02148 -2.60742,0.58594 -4.36524,0.87891 -5.27344,0.87891 h -8.39258 z"
         style="font-style:normal;font-variant:normal;font-weight:normal;font-stretch:normal;font-size:90px;font-family:'Arial Black';-inkscape-font-specification:'Arial Black, ';letter-spacing:7.76000261px;word-spacing:1.63000011px;fill:#21146a;fill-opacity:1" />
      <path
         inkscape:connector-curvature="0"
         id="path4408-0-9-6"
         d="m 212.39464,214.84456 -19.0976,50.8125 57.8554,-5.45312 -17.0488,-45.35938 z m 10.6348,16.69922 7.1191,23.16016 h -14.1953 z"
         style="font-style:normal;font-variant:normal;font-weight:normal;font-stretch:normal;font-size:90px;font-family:'Arial Black';-inkscape-font-specification:'Arial Black, ';letter-spacing:7.76000261px;word-spacing:1.63000011px;fill:#21146a;fill-opacity:1" />
      <path
         inkscape:connector-curvature="0"
         style="font-style:normal;font-variant:normal;font-weight:normal;font-stretch:normal;font-size:90px;font-family:'Arial Black';-inkscape-font-specification:'Arial Black, ';letter-spacing:7.76000261px;word-spacing:1.63000011px;fill:#21146a;fill-opacity:1"
         d="m 49.17427,279.24538 2e-5,-64.40038 v 0 h 49.21875 v 13.84278 H 69.16941 v 11.25 h 24.96094 v 13.00781 H 69.16941 v 24.41496"
         id="path4251-6-3-0" />
      <g
         style="fill:#21146a;fill-opacity:1"
         transform="translate(-12,-6)"
         id="g4332-2-7-6">
        <path
           inkscape:connector-curvature="0"
           transform="translate(-817.14636,156.72933)"
           id="path4226-6-4-2"
           d="m 1099.0772,107.7324 c -0.987,-3.51648 -1.4804,-7.31809 -1.4804,-11.404815 0,-7.031253 1.4502,-13.139653 4.3505,-18.3252 2.9004,-5.214846 7.1485,-9.169923 12.7442,-11.86523 4.3652,-2.08008 10.2392,-3.12012 17.6221,-3.12012 7.1191,0 12.4365,0.64453 15.9521,1.93359 3.5449,1.289067 6.4746,3.295904 8.7891,6.02051 2.3437,2.695314 4.1015,6.123047 5.2734,10.2832 l -19.2041,3.42774 c -0.791,-2.43164 -2.1387,-4.291993 -4.043,-5.58106 -1.875,-1.28906 -4.2773,-1.93359 -7.207,-1.93359 -4.3652,0 -7.8516,1.523437 -10.459,4.57031 -2.5781,3.01758 -3.8672,7.80762 -3.8672,14.37012 0,3.886518 0.4051,7.154085 1.2152,9.802705"
           style="font-style:normal;font-variant:normal;font-weight:normal;font-stretch:normal;font-size:90px;font-family:'Arial Black';-inkscape-font-specification:'Arial Black, ';letter-spacing:7.76000261px;word-spacing:1.63000011px;fill:#21146a;fill-opacity:1" />
        <path
           inkscape:connector-curvature="0"
           transform="translate(-817.14636,156.72933)"
           id="path4410-1-5-6"
           d="M 1132.4454,104.5581 V 91.801215 h 30.7617 v 9.857065"
           style="font-style:normal;font-variant:normal;font-weight:normal;font-stretch:normal;font-size:90px;font-family:'Arial Black';-inkscape-font-specification:'Arial Black, ';letter-spacing:7.76000261px;word-spacing:1.63000011px;fill:#21146a;fill-opacity:1" />
      </g>
      <path
         inkscape:connector-curvature="0"
         style="font-style:normal;font-variant:normal;font-weight:normal;font-stretch:normal;font-size:90px;font-family:'Arial Black';-inkscape-font-specification:'Arial Black, ';letter-spacing:7.76000261px;word-spacing:1.63000011px;fill:#21146a;fill-opacity:1"
         d="m 446.43624,241.79422 v -26.94922 0 h 53.3496 v 13.75488 h -33.3984 v 10.23926 h 11.3941"
         id="path4202-7-5-8" />
      <path
         inkscape:connector-curvature="0"
         style="font-style:normal;font-variant:normal;font-weight:normal;font-stretch:normal;font-size:90px;font-family:'Arial Black';-inkscape-font-specification:'Arial Black, ';letter-spacing:7.76000261px;word-spacing:1.63000011px;fill:#21146a;fill-opacity:1"
         d="m 519.41104,234.91531 v -20.07031 0 h 18.5889 l 11.7153,17.21212"
         id="path4197-9-4-7" />
      <path
         inkscape:connector-curvature="0"
         style="font-style:normal;font-variant:normal;font-weight:normal;font-stretch:normal;font-size:90px;font-family:'Arial Black';-inkscape-font-specification:'Arial Black, ';letter-spacing:7.76000261px;word-spacing:1.63000011px;fill:#21146a;fill-opacity:1"
         d="M 562.25774,230.87581 V 214.845 h 18.7647 v 14.26172"
         id="path4193-2-7-9" />
      <path
         inkscape:connector-curvature="0"
         style="font-style:normal;font-variant:normal;font-weight:normal;font-stretch:normal;font-size:90px;font-family:'Arial Black';-inkscape-font-specification:'Arial Black, ';letter-spacing:7.76000261px;word-spacing:1.63000011px;fill:#21146a;fill-opacity:1"
         d="m 597.57144,227.54616 v -12.70116 0 h 60.5127 v 6.99609"
         id="path4188-0-4-2" />
    </g>
    <path
       sodipodi:nodetypes="cccccccccccccc"
       id="path4181-7-4-2"
       d="m 194.36487,124.25768 -5.18803,0.48893 -4.30752,6.80291 -2.6442,-4.58666 -5.75358,0.5424 4.68974,7.15698 -8.21628,13.1142 h 6.27559 l 5.53739,-9.48004 3.584,5.84123 h 6.31305 l -6.18905,-9.37617 7.11101,-10.50378 z"
       style="font-style:normal;font-variant:normal;font-weight:normal;font-stretch:normal;font-size:90px;line-height:125%;font-family:'Arial Black';-inkscape-font-specification:'Arial Black, ';letter-spacing:7.76000261px;word-spacing:1.63000011px;fill:#21146a;fill-opacity:1;stroke:none;stroke-width:0.28222224px;stroke-linecap:butt;stroke-linejoin:miter;stroke-opacity:1"
       inkscape:connector-curvature="0" />
  </g>
</svg>
