<?xml version="1.0" encoding="UTF-8" standalone="no"?>
<!-- Created with Inkscape (http://www.inkscape.org/) -->

<svg
   xmlns:dc="http://purl.org/dc/elements/1.1/"
   xmlns:cc="http://creativecommons.org/ns#"
   xmlns:rdf="http://www.w3.org/1999/02/22-rdf-syntax-ns#"
   xmlns:svg="http://www.w3.org/2000/svg"
   xmlns="http://www.w3.org/2000/svg"
   xmlns:sodipodi="http://sodipodi.sourceforge.net/DTD/sodipodi-0.dtd"
   xmlns:inkscape="http://www.inkscape.org/namespaces/inkscape"
   width="184.66473mm"
   height="24.88229mm"
   viewBox="0 0 184.66473 24.88229"
   version="1.1"
   id="svg4625"
   inkscape:version="0.92.1 r15371"
   sodipodi:docname="logo-light.svg">
  <defs
     id="defs4619" />
  <sodipodi:namedview
     id="base"
     pagecolor="#ffffff"
     bordercolor="#666666"
     borderopacity="1.0"
     inkscape:pageopacity="0.0"
     inkscape:pageshadow="2"
     inkscape:zoom="0.64"
     inkscape:cx="464.93782"
     inkscape:cy="67.426362"
     inkscape:document-units="mm"
     inkscape:current-layer="layer1"
     showgrid="false"
     inkscape:window-width="1920"
     inkscape:window-height="1017"
     inkscape:window-x="-8"
     inkscape:window-y="-8"
     inkscape:window-maximized="1"
     fit-margin-top="0"
     fit-margin-left="0"
     fit-margin-right="0"
     fit-margin-bottom="0" />
  <metadata
     id="metadata4622">
    <rdf:RDF>
      <cc:Work
         rdf:about="">
        <dc:format>image/svg+xml</dc:format>
        <dc:type
           rdf:resource="http://purl.org/dc/dcmitype/StillImage" />
        <dc:title></dc:title>
      </cc:Work>
    </rdf:RDF>
  </metadata>
  <g
     inkscape:label="Layer 1"
     inkscape:groupmode="layer"
     id="layer1"
     transform="translate(-11.433904,-122.91497)">
    <g
       transform="matrix(0.28222223,0,0,0.28222223,-2.4441681,62.590997)"
       style="font-style:normal;font-weight:normal;font-size:40px;line-height:125%;font-family:sans-serif;letter-spacing:0px;word-spacing:0px;fill:#3601d8;fill-opacity:1;stroke:none;stroke-width:1px;stroke-linecap:butt;stroke-linejoin:miter;stroke-opacity:1"
       id="g4340-0-7-7">
      <path
         inkscape:connector-curvature="0"
         id="path4219-9-6-0"
         d="m 353.59774,214.84456 v 35.70118 l 16.3047,-1.53711 v -18.8711 l 4.7129,18.42774 13.5391,-1.27735 -8.3653,-32.44336 z"
         style="font-style:normal;font-variant:normal;font-weight:normal;font-stretch:normal;font-size:90px;font-family:'Arial Black';-inkscape-font-specification:'Arial Black, ';letter-spacing:7.76000261px;word-spacing:1.63000011px;fill:#3601d8;fill-opacity:1" />
      <path
         inkscape:connector-curvature="0"
         id="path4207-3-5-9"
         d="m 399.96104,214.84456 -8.2441,32.10743 14.1133,-1.33008 3.9746,-15.48438 v 15.10938 l 16.2597,-1.5332 v -28.86915 z"
         style="font-style:normal;font-variant:normal;font-weight:normal;font-stretch:normal;font-size:90px;font-family:'Arial Black';-inkscape-font-specification:'Arial Black, ';letter-spacing:7.76000261px;word-spacing:1.63000011px;fill:#3601d8;fill-opacity:1" />
      <path
         inkscape:connector-curvature="0"
         id="path4406-6-6-3"
         d="m 117.22669,214.84456 v 57.98438 l 19.99609,-1.88477 v -17.82226 h 1.75781 c 1.81641,0 3.44141,0.49804 4.87696,1.49414 1.05469,0.76172 2.25585,2.41601 3.60351,4.96484 l 5.3457,9.89453 21.68948,-2.04492 -3.5235,-6.83789 c -0.46863,-0.9375 -1.40621,-2.27149 -2.81246,-4 -1.37695,-1.72852 -2.43164,-2.85547 -3.16406,-3.38281 -1.08399,-0.79102 -2.8125,-1.58203 -5.18555,-2.37305 2.95899,-0.67383 5.28711,-1.52343 6.98633,-2.54883 2.66601,-1.61132 4.76174,-3.70703 6.28514,-6.28515 1.5235,-2.60742 2.2852,-5.69727 2.2852,-9.27149 0,-4.10156 -0.9961,-7.57421 -2.9883,-10.41601 -1.99222,-2.8711 -4.61525,-4.83399 -7.8672,-5.88867 -3.25195,-1.05469 -7.95312,-1.58204 -14.10547,-1.58204 z m 19.99609,13.00782 h 8.74414 c 3.63281,0 6.10938,0.55663 7.42774,1.66992 1.31836,1.11328 1.97656,2.71093 1.97656,4.79101 0,1.40625 -0.42383,2.65039 -1.27344,3.73438 -0.82031,1.08398 -1.89062,1.75781 -3.20898,2.02148 -2.60742,0.58594 -4.36524,0.87891 -5.27344,0.87891 h -8.39258 z"
         style="font-style:normal;font-variant:normal;font-weight:normal;font-stretch:normal;font-size:90px;font-family:'Arial Black';-inkscape-font-specification:'Arial Black, ';letter-spacing:7.76000261px;word-spacing:1.63000011px;fill:#3601d8;fill-opacity:1" />
      <path
         inkscape:connector-curvature="0"
         id="path4408-0-9-6"
         d="m 212.39464,214.84456 -19.0976,50.8125 57.8554,-5.45312 -17.0488,-45.35938 z m 10.6348,16.69922 7.1191,23.16016 h -14.1953 z"
         style="font-style:normal;font-variant:normal;font-weight:normal;font-stretch:normal;font-size:90px;font-family:'Arial Black';-inkscape-font-specification:'Arial Black, ';letter-spacing:7.76000261px;word-spacing:1.63000011px;fill:#3601d8;fill-opacity:1" />
      <path
         inkscape:connector-curvature="0"
         style="font-style:normal;font-variant:normal;font-weight:normal;font-stretch:normal;font-size:90px;font-family:'Arial Black';-inkscape-font-specification:'Arial Black, ';letter-spacing:7.76000261px;word-spacing:1.63000011px;fill:#3601d8;fill-opacity:1"
         d="m 49.17427,279.24538 2e-5,-64.40038 v 0 h 49.21875 v 13.84278 H 69.16941 v 11.25 h 24.96094 v 13.00781 H 69.16941 v 24.41496"
         id="path4251-6-3-0" />
      <g
         style="fill:#3601d8;fill-opacity:1"
         transform="translate(-12,-6)"
         id="g4332-2-7-6">
        <path
           inkscape:connector-curvature="0"
           transform="translate(-817.14636,156.72933)"
           id="path4226-6-4-2"
           d="m 1099.0772,107.7324 c -0.987,-3.51648 -1.4804,-7.31809 -1.4804,-11.404815 0,-7.031253 1.4502,-13.139653 4.3505,-18.3252 2.9004,-5.214846 7.1485,-9.169923 12.7442,-11.86523 4.3652,-2.08008 10.2392,-3.12012 17.6221,-3.12012 7.1191,0 12.4365,0.64453 15.9521,1.93359 3.5449,1.289067 6.4746,3.295904 8.7891,6.02051 2.3437,2.695314 4.1015,6.123047 5.2734,10.2832 l -19.2041,3.42774 c -0.791,-2.43164 -2.1387,-4.291993 -4.043,-5.58106 -1.875,-1.28906 -4.2773,-1.93359 -7.207,-1.93359 -4.3652,0 -7.8516,1.523437 -10.459,4.57031 -2.5781,3.01758 -3.8672,7.80762 -3.8672,14.37012 0,3.886518 0.4051,7.154085 1.2152,9.802705"
           style="font-style:normal;font-variant:normal;font-weight:normal;font-stretch:normal;font-size:90px;font-family:'Arial Black';-inkscape-font-specification:'Arial Black, ';letter-spacing:7.76000261px;word-spacing:1.63000011px;fill:#3601d8;fill-opacity:1" />
        <path
           inkscape:connector-curvature="0"
           transform="translate(-817.14636,156.72933)"
           id="path4410-1-5-6"
           d="M 1132.4454,104.5581 V 91.801215 h 30.7617 v 9.857065"
           style="font-style:normal;font-variant:normal;font-weight:normal;font-stretch:normal;font-size:90px;font-family:'Arial Black';-inkscape-font-specification:'Arial Black, ';letter-spacing:7.76000261px;word-spacing:1.63000011px;fill:#3601d8;fill-opacity:1" />
      </g>
      <path
         inkscape:connector-curvature="0"
         style="font-style:normal;font-variant:normal;font-weight:normal;font-stretch:normal;font-size:90px;font-family:'Arial Black';-inkscape-font-specification:'Arial Black, ';letter-spacing:7.76000261px;word-spacing:1.63000011px;fill:#3601d8;fill-opacity:1"
         d="m 446.43624,241.79422 v -26.94922 0 h 53.3496 v 13.75488 h -33.3984 v 10.23926 h 11.3941"
         id="path4202-7-5-8" />
      <path
         inkscape:connector-curvature="0"
         style="font-style:normal;font-variant:normal;font-weight:normal;font-stretch:normal;font-size:90px;font-family:'Arial Black';-inkscape-font-specification:'Arial Black, ';letter-spacing:7.76000261px;word-spacing:1.63000011px;fill:#3601d8;fill-opacity:1"
         d="m 519.41104,234.91531 v -20.07031 0 h 18.5889 l 11.7153,17.21212"
         id="path4197-9-4-7" />
      <path
         inkscape:connector-curvature="0"
         style="font-style:normal;font-variant:normal;font-weight:normal;font-stretch:normal;font-size:90px;font-family:'Arial Black';-inkscape-font-specification:'Arial Black, ';letter-spacing:7.76000261px;word-spacing:1.63000011px;fill:#3601d8;fill-opacity:1"
         d="M 562.25774,230.87581 V 214.845 h 18.7647 v 14.26172"
         id="path4193-2-7-9" />
      <path
         inkscape:connector-curvature="0"
         style="font-style:normal;font-variant:normal;font-weight:normal;font-stretch:normal;font-size:90px;font-family:'Arial Black';-inkscape-font-specification:'Arial Black, ';letter-spacing:7.76000261px;word-spacing:1.63000011px;fill:#3601d8;fill-opacity:1"
         d="m 597.57144,227.54616 v -12.70116 0 h 60.5127 v 6.99609"
         id="path4188-0-4-2" />
    </g>
  </g>
</svg>
