<?xml version="1.0" encoding="UTF-8" standalone="no"?>
<svg
   xmlns:dc="http://purl.org/dc/elements/1.1/"
   xmlns:cc="http://creativecommons.org/ns#"
   xmlns:rdf="http://www.w3.org/1999/02/22-rdf-syntax-ns#"
   xmlns:svg="http://www.w3.org/2000/svg"
   xmlns="http://www.w3.org/2000/svg"
   xmlns:sodipodi="http://sodipodi.sourceforge.net/DTD/sodipodi-0.dtd"
   xmlns:inkscape="http://www.inkscape.org/namespaces/inkscape"
   version="1.1"
   x="0px"
   y="0px"
   viewBox="0 0 123.97664 122.17664"
   xml:space="preserve"
   id="svg32"
   sodipodi:docname="measure.svg"
   width="123.97664"
   height="122.17664"
   inkscape:version="0.92.1 r15371"><metadata
     id="metadata38"><rdf:RDF><cc:Work
         rdf:about=""><dc:format>image/svg+xml</dc:format><dc:type
           rdf:resource="http://purl.org/dc/dcmitype/StillImage" /><dc:title /></cc:Work></rdf:RDF></metadata><defs
     id="defs36" /><sodipodi:namedview
     pagecolor="#ffffff"
     bordercolor="#666666"
     borderopacity="1"
     objecttolerance="10"
     gridtolerance="10"
     guidetolerance="10"
     inkscape:pageopacity="0"
     inkscape:pageshadow="2"
     inkscape:window-width="1920"
     inkscape:window-height="1017"
     id="namedview34"
     showgrid="false"
     fit-margin-top="0"
     fit-margin-left="0"
     fit-margin-right="0"
     fit-margin-bottom="0"
     inkscape:zoom="1.475"
     inkscape:cx="420.02867"
     inkscape:cy="200.35424"
     inkscape:window-x="-8"
     inkscape:window-y="-8"
     inkscape:window-maximized="1"
     inkscape:current-layer="svg32" /><g
     id="g26"
     style="fill:#3601d8;fill-opacity:1"
     transform="matrix(0.71563807,0,0,0.71563807,16.195843,15.279126)"><g
       id="g24"
       style="fill:#3601d8;fill-opacity:1"><g
         id="g10"
         style="fill:#3601d8;fill-opacity:1"><path
           d="m 19.6,125.1 c -4.2,0 -8.2,-1.5 -11.3,-4.6 -3,-3 -4.6,-7 -4.6,-11.3 0,-4.7 2,-9.3 5.4,-12.6 L 95,10.6 c 0.3,-0.3 0.6,-0.4 0.9,-0.5 L 123.5,3 c 0.7,-0.2 1.4,0 1.9,0.5 0.5,0.5 0.7,1.2 0.5,1.9 l -7.1,27.5 c -0.1,0.3 -0.3,0.7 -0.5,0.9 l -86,86 c -3.5,3.5 -8.1,5.3 -12.7,5.3 z M 97.5,13.8 11.9,99.4 c -2.7,2.6 -4.2,6.2 -4.2,9.8 0,3.3 1.2,6.3 3.4,8.5 4.8,4.8 13.1,4.5 18.3,-0.8 L 115,31.3 121.1,7.6 Z"
           id="path2"
           style="fill:#3601d8;fill-opacity:1"
           inkscape:connector-curvature="0" /><rect
           x="18.700001"
           y="93.699997"
           transform="matrix(0.7064,-0.7078,0.7078,0.7064,-70.4749,46.4043)"
           width="4"
           height="28.9"
           id="rect4"
           style="fill:#3601d8;fill-opacity:1" /><rect
           x="100.1"
           y="12.3"
           transform="matrix(0.7071,-0.7071,0.7071,0.7071,10.9597,80.0094)"
           width="4"
           height="28.9"
           id="rect6"
           style="fill:#3601d8;fill-opacity:1" /><rect
           x="3.5"
           y="65.599998"
           transform="matrix(0.7072,-0.707,0.707,0.7072,-29.8783,63.0894)"
           width="115.5"
           height="4"
           id="rect8"
           style="fill:#3601d8;fill-opacity:1" /></g><path
         d="M 40.7,69 2.6,31.9 c -0.8,-0.8 -0.8,-2 0,-2.8 L 26.5,4.5 c 0.8,-0.8 2,-0.8 2.8,0 L 68.1,42 65.3,44.9 28,8.7 6.8,30.4 43.5,66.1 Z"
         id="path12"
         style="fill:#3601d8;fill-opacity:1"
         inkscape:connector-curvature="0" /><path
         d="m 98.5,124.1 c -0.5,0 -1,-0.2 -1.4,-0.6 l -37.1,-36 2.8,-2.9 35.6,34.6 21.2,-21.8 -35.2,-34 2.8,-2.9 36.6,35.5 c 0.4,0.4 0.6,0.9 0.6,1.4 0,0.5 -0.2,1 -0.6,1.4 l -24,24.6 c -0.3,0.5 -0.8,0.7 -1.3,0.7 z"
         id="path14"
         style="fill:#3601d8;fill-opacity:1"
         inkscape:connector-curvature="0" /><rect
         x="13"
         y="31.700001"
         transform="matrix(0.6931,-0.7209,0.7209,0.6931,-17.4165,26.4657)"
         width="18.700001"
         height="4"
         id="rect16"
         style="fill:#3601d8;fill-opacity:1" /><rect
         x="25.700001"
         y="43.900002"
         transform="matrix(0.6909,-0.7229,0.7229,0.6909,-22.3879,39.5239)"
         width="18.700001"
         height="4"
         id="rect18"
         style="fill:#3601d8;fill-opacity:1" /><rect
         x="85.400002"
         y="102.6"
         transform="matrix(0.6942,-0.7198,0.7198,0.6942,-46.3471,100.2053)"
         width="18.700001"
         height="4"
         id="rect20"
         style="fill:#3601d8;fill-opacity:1" /><rect
         x="75"
         y="91.400002"
         transform="matrix(0.6919,-0.722,0.722,0.6919,-41.4494,89.6727)"
         width="18.700001"
         height="4"
         id="rect22"
         style="fill:#3601d8;fill-opacity:1" /></g></g></svg>