<?xml version="1.0" encoding="UTF-8" standalone="no"?>
<svg
   xmlns:dc="http://purl.org/dc/elements/1.1/"
   xmlns:cc="http://creativecommons.org/ns#"
   xmlns:rdf="http://www.w3.org/1999/02/22-rdf-syntax-ns#"
   xmlns:svg="http://www.w3.org/2000/svg"
   xmlns="http://www.w3.org/2000/svg"
   xmlns:sodipodi="http://sodipodi.sourceforge.net/DTD/sodipodi-0.dtd"
   xmlns:inkscape="http://www.inkscape.org/namespaces/inkscape"
   version="1.1"
   x="0px"
   y="0px"
   viewBox="0 0 233.58051 155.72034"
   xml:space="preserve"
   id="svg10"
   sodipodi:docname="object.svg"
   width="233.58051"
   height="155.72034"
   inkscape:version="0.92.1 r15371"><metadata
     id="metadata16"><rdf:RDF><cc:Work
         rdf:about=""><dc:format>image/svg+xml</dc:format><dc:type
           rdf:resource="http://purl.org/dc/dcmitype/StillImage" /><dc:title></dc:title></cc:Work></rdf:RDF></metadata><defs
     id="defs14" /><sodipodi:namedview
     pagecolor="#ffffff"
     bordercolor="#666666"
     borderopacity="1"
     objecttolerance="10"
     gridtolerance="10"
     guidetolerance="10"
     inkscape:pageopacity="0"
     inkscape:pageshadow="2"
     inkscape:window-width="1920"
     inkscape:window-height="1017"
     id="namedview12"
     showgrid="false"
     fit-margin-top="0"
     fit-margin-left="0"
     fit-margin-right="0"
     fit-margin-bottom="0"
     inkscape:zoom="1.888"
     inkscape:cx="44.820688"
     inkscape:cy="65.360672"
     inkscape:window-x="-8"
     inkscape:window-y="-8"
     inkscape:window-maximized="1"
     inkscape:current-layer="svg10" /><style
     type="text/css"
     id="style2">
	.st0{fill:none;stroke:#000000;stroke-width:2;stroke-linecap:round;stroke-linejoin:round;stroke-miterlimit:10;}
	.st1{fill:none;stroke:#000000;stroke-width:1.8;stroke-linecap:round;stroke-linejoin:round;stroke-miterlimit:10;}
	.st2{fill:none;stroke:#000000;stroke-width:2;stroke-linecap:round;stroke-linejoin:round;}
	.st3{fill:none;stroke:#000000;stroke-width:2;stroke-linecap:round;stroke-linejoin:round;stroke-dasharray:2.9177,3.8902;}
	.st4{fill:none;stroke:#000000;stroke-width:2;stroke-miterlimit:10;}
</style><rect
     style="opacity:1;fill:#3601d8;fill-opacity:1;stroke:none;stroke-width:1.00057209;stroke-miterlimit:4;stroke-dasharray:none;stroke-opacity:1"
     id="rect4491"
     width="233.58051"
     height="155.72034"
     x="0"
     y="0" /><path
     d="m 95.223707,84.49511 c 0,7.21602 3.54617,13.85711 9.515703,17.88157 l -1.7133,7.23484 c -0.0573,0.24406 -8.2e-4,0.5004 0.15478,0.69695 0.15479,0.19656 0.39229,0.31122 0.64208,0.31122 h 25.93457 c 0.25061,0 0.48729,-0.11466 0.64208,-0.31122 0.15561,-0.19573 0.21212,-0.45289 0.15479,-0.69695 l -1.7133,-7.23484 c 5.97034,-4.02528 9.5157,-10.66555 9.5157,-17.88157 0,-7.79093 -4.1686,-14.92095 -10.92271,-18.75622 0.12858,-0.67238 0.19328,-1.33985 0.19328,-1.99094 0,-1.92705 -0.51677,-3.81398 -1.49791,-5.4806 l 1.54623,-6.13578 c 2.06464,-0.31531 3.65182,-2.1015 3.65182,-4.25295 v -1.959 c 0,-0.45289 -0.3669,-0.81897 -0.81898,-0.81897 h -27.43575 c -0.45208,0 -0.81898,0.36608 -0.81898,0.81897 v 1.95818 c 0,2.15145 1.58718,3.93846 3.65182,4.25295 l 1.54623,6.13578 c -0.98113,1.66662 -1.49791,3.55437 -1.49791,5.4806 0,0.65109 0.0647,1.31774 0.19328,1.99094 -6.754933,3.83609 -10.923523,10.96529 -10.923523,18.75704 z m 3.93027,-9.27819 4.564983,8.14555 h -6.818813 c 0.16298,-2.89181 0.94592,-5.65996 2.25383,-8.14555 z m 19.017483,8.14555 4.40528,-7.85564 4.40856,7.85564 z m 9.02432,1.63795 -4.58464,8.1775 -4.58136,-8.1775 z m -20.65216,-1.63795 4.40364,-7.854 4.40037,7.854 z m 9.02431,1.63795 -4.58709,8.17913 -4.59037,-8.17913 z m -11.63931,0 -4.846713,8.63694 c -1.36032,-2.63301 -2.12852,-5.57232 -2.20469,-8.63694 z m 1.23174,1.15231 4.65262,8.29133 h -9.30523 z m 11.63768,0.002 4.64442,8.28969 h -9.29212 z m 11.62866,0 4.64524,8.28969 h -9.29212 z m 6.07109,7.48218 -4.84016,-8.63612 h 7.04484 c -0.077,3.06461 -0.84436,6.0031 -2.20468,8.63612 z m -4.68701,-10.27408 4.59282,-8.18486 c 1.32101,2.49624 2.11133,5.27831 2.27594,8.18486 z m -1.41274,-0.8288 -4.57563,-8.15457 h 9.15126 z m -11.63849,-0.002 -4.56744,-8.15293 h 9.13897 z m -11.62867,0 -4.56908,-8.15293 h 9.13898 z m -0.27272,26.44888 1.41847,-5.98836 h 21.02644 l 1.41846,5.98836 z m 22.6128,-7.66563 c -0.0172,0.0106 -0.0287,0.027 -0.0442,0.0393 h -21.27459 c -0.0164,-0.0123 -0.027,-0.0287 -0.0442,-0.0393 -2.20551,-1.40373 -4.06951,-3.18664 -5.53629,-5.23327 h 32.43561 c -1.46597,2.04581 -3.32996,3.82954 -5.53629,5.23327 z m -3.67148,-35.94493 1.76326,-4.34059 c 0.27436,0.87795 0.42587,1.79111 0.42587,2.71819 0,0.52824 -0.0688,1.07286 -0.16953,1.6224 z m 0.72398,-6.13415 -1.94016,4.7771 -1.94262,-4.78119 z m -11.63113,-0.0123 -1.94261,4.78693 -1.94344,-4.79102 z m -5.13171,6.14643 c -0.10156,-0.54953 -0.16953,-1.09497 -0.16953,-1.62239 0,-0.90661 0.1425,-1.80094 0.40457,-2.66086 l 1.73788,4.28325 z m 6.09647,-4.1686 1.69037,4.1686 h -3.38156 z m 0.96639,-1.97619 3.88114,0.004 -1.94016,4.78037 z m 4.84917,1.97456 1.69365,4.17023 h -3.38648 z M 107.34949,51.16024 c -0.0917,-0.36362 -0.41932,-0.61914 -0.79441,-0.61914 -1.46924,0 -2.66413,-1.19489 -2.66413,-2.66414 v -1.13838 h 25.7978 v 1.1392 c 0,1.46925 -1.19489,2.66413 -2.66414,2.66413 -0.37509,0 -0.70268,0.25553 -0.79441,0.61915 l -1.62157,6.43799 -15.64084,-0.0164 z m -0.10319,15.84804 h 19.08791 c 2.62647,1.43649 4.83934,3.40531 6.542,5.73285 h -32.1719 c 1.70183,-2.32754 3.91471,-4.29636 6.54199,-5.73285 z"
     id="path4"
     style="fill:#ffffff;fill-opacity:0.4857143;stroke:none;stroke-width:0.81897777;stroke-opacity:1"
     inkscape:connector-curvature="0" /></svg>