<?xml version="1.0" standalone="no"?>
<!DOCTYPE svg PUBLIC "-//W3C//DTD SVG 20010904//EN"
 "http://www.w3.org/TR/2001/REC-SVG-20010904/DTD/svg10.dtd">
<svg version="1.0" xmlns="http://www.w3.org/2000/svg"
 width="532.000000pt" height="532.000000pt" viewBox="0 0 532.000000 532.000000"
 preserveAspectRatio="xMidYMid meet">
<metadata>
Created by potrace 1.11, written by Peter Selinger 2001-2013
</metadata>
<g transform="translate(0.000000,532.000000) scale(0.100000,-0.100000)"
fill="#000000" stroke="none">
<path d="M4057 4293 c-1 -1 -33 -4 -72 -7 -38 -3 -88 -8 -110 -10 -22 -3 -71
-7 -110 -10 -69 -6 -147 -14 -215 -21 -19 -2 -71 -7 -115 -10 -56 -4 -85 -11
-96 -23 -9 -9 -103 -154 -209 -322 -276 -436 -342 -541 -366 -576 l-21 -32
-183 319 -184 319 -40 -5 c-23 -2 -70 -7 -106 -10 -36 -3 -81 -8 -100 -10 -19
-3 -60 -7 -91 -9 -50 -4 -92 -8 -224 -21 -16 -2 -68 -7 -113 -10 -103 -9 -117
-11 -117 -17 0 -6 44 -75 230 -358 78 -118 163 -249 190 -290 27 -41 88 -135
136 -208 l88 -133 -42 -68 c-23 -37 -123 -196 -222 -354 -99 -157 -193 -308
-210 -336 -22 -36 -455 -726 -575 -915 -40 -64 -84 -142 -82 -146 3 -8 836 -6
853 1 16 8 37 43 469 784 145 248 273 467 285 489 l23 39 25 -39 c13 -22 86
-140 162 -264 75 -124 146 -238 156 -255 11 -16 50 -79 87 -140 l68 -110 437
-3 c240 -1 437 0 437 2 0 3 -31 51 -68 108 -38 57 -117 177 -177 268 -60 91
-184 279 -277 418 -92 140 -168 258 -168 262 0 5 -3 10 -7 12 -10 4 -153 221
-153 232 0 6 227 347 442 661 41 61 137 202 213 315 76 113 181 267 232 343
52 75 93 137 91 138 -6 2 -170 4 -171 2z"/>
</g>
</svg>
