<?xml version="1.0" encoding="UTF-8" standalone="no"?>
<!-- Created with Inkscape (http://www.inkscape.org/) -->

<svg
   xmlns:dc="http://purl.org/dc/elements/1.1/"
   xmlns:cc="http://creativecommons.org/ns#"
   xmlns:rdf="http://www.w3.org/1999/02/22-rdf-syntax-ns#"
   xmlns:svg="http://www.w3.org/2000/svg"
   xmlns="http://www.w3.org/2000/svg"
   xmlns:sodipodi="http://sodipodi.sourceforge.net/DTD/sodipodi-0.dtd"
   xmlns:inkscape="http://www.inkscape.org/namespaces/inkscape"
   width="50mm"
   height="35mm"
   viewBox="0 0 50 35"
   version="1.1"
   id="svg8"
   inkscape:version="0.92.1 r15371"
   sodipodi:docname="user.svg">
  <defs
     id="defs2" />
  <sodipodi:namedview
     id="base"
     pagecolor="#ffffff"
     bordercolor="#666666"
     borderopacity="1.0"
     inkscape:pageopacity="0.0"
     inkscape:pageshadow="2"
     inkscape:zoom="1.4"
     inkscape:cx="75.677025"
     inkscape:cy="36.829571"
     inkscape:document-units="mm"
     inkscape:current-layer="layer1"
     showgrid="false"
     inkscape:window-width="1366"
     inkscape:window-height="705"
     inkscape:window-x="-8"
     inkscape:window-y="-8"
     inkscape:window-maximized="1" />
  <metadata
     id="metadata5">
    <rdf:RDF>
      <cc:Work
         rdf:about="">
        <dc:format>image/svg+xml</dc:format>
        <dc:type
           rdf:resource="http://purl.org/dc/dcmitype/StillImage" />
        <dc:title></dc:title>
      </cc:Work>
    </rdf:RDF>
  </metadata>
  <g
     inkscape:label="Layer 1"
     inkscape:groupmode="layer"
     id="layer1"
     transform="translate(0,-262)">
    <g
       transform="translate(-5.6696428,0.56696355)"
       id="layer1-5"
       inkscape:label="Layer 1">
      <g
         transform="matrix(0.26458333,0,0,0.26458333,-0.66265876,256.36676)"
         id="g4495">
        <rect
           style="opacity:1;fill:#3601d8;fill-opacity:1;stroke:none;stroke-width:1.00057209;stroke-miterlimit:4;stroke-dasharray:none;stroke-opacity:1"
           id="rect4491"
           width="233.58051"
           height="155.72034"
           x="0"
           y="0" />
        <g
           transform="translate(-7.8247594,30.255471)"
           id="g4520">
          <g
             id="g4501">
            <path
               style="fill:#ffffff;fill-opacity:0.4857143"
               inkscape:connector-curvature="0"
               d="m 126.61429,42.271429 c 8.9,0 16.2,-7.3 16.2,-16.2 0,-8.9 -7.3,-16.2000004 -16.2,-16.2000004 -8.9,0 -16.2,7.3000004 -16.2,16.2000004 0,8.9 7.2,16.2 16.2,16.2 z m 0,-28.1 c 6.5,0 11.9,5.3 11.9,11.9 0,6.6 -5.3,11.9 -11.9,11.9 -6.6,-0.1 -11.9,-5.4 -11.9,-11.9 0,-6.5 5.3,-11.9 11.9,-11.9 z"
               id="path4497" />
            <path
               style="fill:#ffffff;fill-opacity:0.4857143"
               inkscape:connector-curvature="0"
               d="m 154.61429,64.771429 c -0.9,-9.7 -9.1,-17.3 -18.9,-17.3 h -18.3 c -9.7,0 -18.000003,7.6 -18.800003,17.3 l -1.8,20.8 c -0.1,0.6 0.2,1.2 0.6,1.6 0.4,0.4 1,0.7 1.6,0.7 h 55.100003 c 0.6,0 1.2,-0.3 1.6,-0.7 0.4,-0.4 0.6,-1 0.6,-1.6 z m -53.2,18.8 1.5,-18.4 c 0.6,-7.5 7,-13.3 14.5,-13.3 h 18.3 c 7.6,0 13.9,5.7 14.5,13.3 l 1.6,18.4 z"
               id="path4499" />
          </g>
        </g>
      </g>
    </g>
  </g>
  <style
     type="text/css"
     id="style2">
	.st0{fill:none;stroke:#000000;stroke-width:2;stroke-linecap:round;stroke-linejoin:round;stroke-miterlimit:10;}
	.st1{fill:none;stroke:#000000;stroke-width:1.8;stroke-linecap:round;stroke-linejoin:round;stroke-miterlimit:10;}
	.st2{fill:none;stroke:#000000;stroke-width:2;stroke-linecap:round;stroke-linejoin:round;}
	.st3{fill:none;stroke:#000000;stroke-width:2;stroke-linecap:round;stroke-linejoin:round;stroke-dasharray:2.9177,3.8902;}
	.st4{fill:none;stroke:#000000;stroke-width:2;stroke-miterlimit:10;}
</style>
</svg>
